<svg width="20" height="16" viewBox="0 0 20 16" fill="none" xmlns="http://www.w3.org/2000/svg">
<mask id="path-1-inside-1_9_19234" fill="white">
<path d="M16 0.25H4C1.582 0.25 0.25 1.582 0.25 4V12C0.25 14.418 1.582 15.75 4 15.75H16C18.418 15.75 19.75 14.418 19.75 12V4C19.75 1.582 18.418 0.25 16 0.25ZM18.25 12C18.25 13.577 17.577 14.25 16 14.25H4C2.423 14.25 1.75 13.577 1.75 12V6.75H18.25V12ZM18.25 5.25H1.75V4C1.75 2.423 2.423 1.75 4 1.75H16C17.577 1.75 18.25 2.423 18.25 4V5.25ZM4.25 11C4.25 10.586 4.586 10.25 5 10.25H8C8.414 10.25 8.75 10.586 8.75 11C8.75 11.414 8.414 11.75 8 11.75H5C4.586 11.75 4.25 11.414 4.25 11Z"/>
</mask>
<path d="M16 0.25H4C1.582 0.25 0.25 1.582 0.25 4V12C0.25 14.418 1.582 15.75 4 15.75H16C18.418 15.75 19.75 14.418 19.75 12V4C19.75 1.582 18.418 0.25 16 0.25ZM18.25 12C18.25 13.577 17.577 14.25 16 14.25H4C2.423 14.25 1.75 13.577 1.75 12V6.75H18.25V12ZM18.25 5.25H1.75V4C1.75 2.423 2.423 1.75 4 1.75H16C17.577 1.75 18.25 2.423 18.25 4V5.25ZM4.25 11C4.25 10.586 4.586 10.25 5 10.25H8C8.414 10.25 8.75 10.586 8.75 11C8.75 11.414 8.414 11.75 8 11.75H5C4.586 11.75 4.25 11.414 4.25 11Z" fill="black"/>
<path d="M1.75 6.75V4.75H-0.25V6.75H1.75ZM18.25 6.75H20.25V4.75H18.25V6.75ZM18.25 5.25V7.25H20.25V5.25H18.25ZM1.75 5.25H-0.25V7.25H1.75V5.25ZM16 -1.75H4V2.25H16V-1.75ZM4 -1.75C2.4335 -1.75 0.921119 -1.31305 -0.195964 -0.195964C-1.31305 0.921119 -1.75 2.4335 -1.75 4H2.25C2.25 3.1485 2.47905 2.78588 2.63246 2.63246C2.78588 2.47905 3.1485 2.25 4 2.25V-1.75ZM-1.75 4V12H2.25V4H-1.75ZM-1.75 12C-1.75 13.5665 -1.31305 15.0789 -0.195964 16.196C0.921119 17.313 2.4335 17.75 4 17.75V13.75C3.1485 13.75 2.78588 13.521 2.63246 13.3675C2.47905 13.2141 2.25 12.8515 2.25 12H-1.75ZM4 17.75H16V13.75H4V17.75ZM16 17.75C17.5665 17.75 19.0789 17.313 20.196 16.196C21.313 15.0789 21.75 13.5665 21.75 12H17.75C17.75 12.8515 17.521 13.2141 17.3675 13.3675C17.2141 13.521 16.8515 13.75 16 13.75V17.75ZM21.75 12V4H17.75V12H21.75ZM21.75 4C21.75 2.4335 21.313 0.921119 20.196 -0.195964C19.0789 -1.31305 17.5665 -1.75 16 -1.75V2.25C16.8515 2.25 17.2141 2.47905 17.3675 2.63246C17.521 2.78588 17.75 3.1485 17.75 4H21.75ZM16.25 12C16.25 12.262 16.2208 12.3892 16.2088 12.4282C16.2011 12.4531 16.2189 12.3854 16.3022 12.3022C16.3854 12.2189 16.4531 12.2011 16.4282 12.2088C16.3892 12.2208 16.262 12.25 16 12.25V16.25C17.0175 16.25 18.2204 16.0407 19.1306 15.1306C20.0407 14.2204 20.25 13.0175 20.25 12H16.25ZM16 12.25H4V16.25H16V12.25ZM4 12.25C3.73795 12.25 3.61082 12.2208 3.57184 12.2088C3.54694 12.2011 3.61461 12.2189 3.69784 12.3022C3.78107 12.3854 3.79886 12.4531 3.79119 12.4282C3.77919 12.3892 3.75 12.262 3.75 12H-0.25C-0.25 13.0175 -0.0407375 14.2204 0.869411 15.1306C1.77956 16.0407 2.98249 16.25 4 16.25V12.25ZM3.75 12V6.75H-0.25V12H3.75ZM1.75 8.75H18.25V4.75H1.75V8.75ZM16.25 6.75V12H20.25V6.75H16.25ZM18.25 3.25H1.75V7.25H18.25V3.25ZM3.75 5.25V4H-0.25V5.25H3.75ZM3.75 4C3.75 3.73795 3.77919 3.61082 3.79119 3.57184C3.79886 3.54694 3.78107 3.61461 3.69784 3.69784C3.61461 3.78107 3.54694 3.79886 3.57184 3.79119C3.61082 3.77919 3.73795 3.75 4 3.75V-0.25C2.98249 -0.25 1.77956 -0.0407375 0.869411 0.869411C-0.0407375 1.77956 -0.25 2.98249 -0.25 4H3.75ZM4 3.75H16V-0.25H4V3.75ZM16 3.75C16.262 3.75 16.3892 3.77919 16.4282 3.79119C16.4531 3.79886 16.3854 3.78107 16.3022 3.69784C16.2189 3.61461 16.2011 3.54694 16.2088 3.57184C16.2208 3.61082 16.25 3.73795 16.25 4H20.25C20.25 2.98249 20.0407 1.77956 19.1306 0.869411C18.2204 -0.0407375 17.0175 -0.25 16 -0.25V3.75ZM16.25 4V5.25H20.25V4H16.25ZM6.25 11C6.25 11.6906 5.69057 12.25 5 12.25V8.25C3.48143 8.25 2.25 9.48143 2.25 11H6.25ZM5 12.25H8V8.25H5V12.25ZM8 12.25C7.30943 12.25 6.75 11.6906 6.75 11H10.75C10.75 9.48143 9.51857 8.25 8 8.25V12.25ZM6.75 11C6.75 10.3094 7.30943 9.75 8 9.75V13.75C9.51857 13.75 10.75 12.5186 10.75 11H6.75ZM8 9.75H5V13.75H8V9.75ZM5 9.75C5.69057 9.75 6.25 10.3094 6.25 11H2.25C2.25 12.5186 3.48143 13.75 5 13.75V9.75Z" fill="black" mask="url(#path-1-inside-1_9_19234)"/>
</svg>
