<svg width="24" height="24" viewBox="0 0 24 24" fill="none" xmlns="http://www.w3.org/2000/svg">
<mask id="path-1-inside-1_9_23479" fill="white">
<path d="M11.75 19C11.75 19.414 11.414 19.75 11 19.75H5C2.582 19.75 1.25 18.418 1.25 16V7C1.25 4.582 2.582 3.25 5 3.25H17C19.418 3.25 20.75 4.582 20.75 7V10C20.75 10.414 20.414 10.75 20 10.75C19.586 10.75 19.25 10.414 19.25 10V7C19.25 5.423 18.577 4.75 17 4.75H5C3.423 4.75 2.75 5.423 2.75 7V16C2.75 17.577 3.423 18.25 5 18.25H11C11.414 18.25 11.75 18.586 11.75 19ZM17.106 7.55901C16.863 7.22501 16.3951 7.149 16.0581 7.394L11.146 10.966C11.058 11.029 10.941 11.029 10.853 10.966L5.94092 7.394C5.60292 7.149 5.13607 7.22601 4.89307 7.55901C4.64907 7.89401 4.72311 8.36399 5.05811 8.60699L9.96997 12.179C10.278 12.403 10.639 12.515 10.999 12.515C11.359 12.515 11.7211 12.403 12.0281 12.179L16.9399 8.60699C17.2759 8.36299 17.351 7.89401 17.106 7.55901ZM22.75 14.882C22.749 15.32 22.5781 15.732 22.2681 16.041L16.752 21.531C16.611 21.671 16.4209 21.75 16.2229 21.75H14C13.586 21.75 13.25 21.414 13.25 21V18.778C13.25 18.58 13.328 18.389 13.469 18.249L18.96 12.732C19.269 12.421 19.6809 12.25 20.1189 12.25C20.1189 12.25 20.1201 12.25 20.1211 12.25C20.5591 12.25 20.9701 12.42 21.2791 12.73L22.269 13.721C22.58 14.031 22.75 14.443 22.75 14.882ZM20.022 13.791L19.3889 14.427L20.573 15.611L21.209 14.978C21.243 14.945 21.25 14.907 21.25 14.88C21.25 14.853 21.243 14.815 21.209 14.781L20.219 13.79C20.186 13.756 20.1481 13.749 20.1211 13.749C20.0941 13.749 20.057 13.757 20.022 13.791ZM19.51 16.669L18.3311 15.49L14.75 19.088V20.251H15.9131L19.51 16.669Z"/>
</mask>
<path d="M11.75 19C11.75 19.414 11.414 19.75 11 19.75H5C2.582 19.75 1.25 18.418 1.25 16V7C1.25 4.582 2.582 3.25 5 3.25H17C19.418 3.25 20.75 4.582 20.75 7V10C20.75 10.414 20.414 10.75 20 10.75C19.586 10.75 19.25 10.414 19.25 10V7C19.25 5.423 18.577 4.75 17 4.75H5C3.423 4.75 2.75 5.423 2.75 7V16C2.75 17.577 3.423 18.25 5 18.25H11C11.414 18.25 11.75 18.586 11.75 19ZM17.106 7.55901C16.863 7.22501 16.3951 7.149 16.0581 7.394L11.146 10.966C11.058 11.029 10.941 11.029 10.853 10.966L5.94092 7.394C5.60292 7.149 5.13607 7.22601 4.89307 7.55901C4.64907 7.89401 4.72311 8.36399 5.05811 8.60699L9.96997 12.179C10.278 12.403 10.639 12.515 10.999 12.515C11.359 12.515 11.7211 12.403 12.0281 12.179L16.9399 8.60699C17.2759 8.36299 17.351 7.89401 17.106 7.55901ZM22.75 14.882C22.749 15.32 22.5781 15.732 22.2681 16.041L16.752 21.531C16.611 21.671 16.4209 21.75 16.2229 21.75H14C13.586 21.75 13.25 21.414 13.25 21V18.778C13.25 18.58 13.328 18.389 13.469 18.249L18.96 12.732C19.269 12.421 19.6809 12.25 20.1189 12.25C20.1189 12.25 20.1201 12.25 20.1211 12.25C20.5591 12.25 20.9701 12.42 21.2791 12.73L22.269 13.721C22.58 14.031 22.75 14.443 22.75 14.882ZM20.022 13.791L19.3889 14.427L20.573 15.611L21.209 14.978C21.243 14.945 21.25 14.907 21.25 14.88C21.25 14.853 21.243 14.815 21.209 14.781L20.219 13.79C20.186 13.756 20.1481 13.749 20.1211 13.749C20.0941 13.749 20.057 13.757 20.022 13.791ZM19.51 16.669L18.3311 15.49L14.75 19.088V20.251H15.9131L19.51 16.669Z" fill="black"/>
<path d="M17.106 7.55901L15.4887 8.73564L15.4916 8.73964L17.106 7.55901ZM16.0581 7.394L14.882 5.77632L14.8819 5.77646L16.0581 7.394ZM11.146 10.966L12.3102 12.5922L12.3162 12.5879L12.3222 12.5835L11.146 10.966ZM10.853 10.966L9.67678 12.5835L9.68277 12.5879L9.6888 12.5922L10.853 10.966ZM5.94092 7.394L7.11717 5.77645L7.1147 5.77466L5.94092 7.394ZM4.89307 7.55901L3.27748 6.38007L3.27643 6.38151L4.89307 7.55901ZM5.05811 8.60699L6.23439 6.98948L6.23244 6.98806L5.05811 8.60699ZM9.96997 12.179L11.1463 10.5615L11.1463 10.5615L9.96997 12.179ZM12.0281 12.179L10.8518 10.5615L10.8492 10.5634L12.0281 12.179ZM16.9399 8.60699L15.7647 6.98869L15.7637 6.98948L16.9399 8.60699ZM22.75 14.882L24.75 14.8866V14.882H22.75ZM22.2681 16.041L23.6789 17.4586L23.68 17.4575L22.2681 16.041ZM16.752 21.531L18.1611 22.9502L18.1628 22.9486L16.752 21.531ZM13.469 18.249L14.8782 19.6683L14.8865 19.6599L13.469 18.249ZM18.96 12.732L20.3775 14.1429L20.3787 14.1416L18.96 12.732ZM21.2791 12.73L19.8626 14.1419L19.8641 14.1435L21.2791 12.73ZM22.269 13.721L20.8541 15.1345L20.8571 15.1375L22.269 13.721ZM20.022 13.791L18.6284 12.3564L18.6163 12.3682L18.6045 12.3801L20.022 13.791ZM19.3889 14.427L17.9714 13.0161L16.5637 14.4303L17.9748 15.8413L19.3889 14.427ZM20.573 15.611L19.1588 17.0253L20.5697 18.436L21.9839 17.0285L20.573 15.611ZM21.209 14.978L19.816 13.5428L19.807 13.5516L19.7981 13.5605L21.209 14.978ZM21.209 14.781L19.794 16.1945L19.7948 16.1952L21.209 14.781ZM20.219 13.79L18.7838 15.1829L18.7939 15.1933L18.8041 15.2035L20.219 13.79ZM19.51 16.669L20.9213 18.0862L22.3414 16.672L20.9243 15.2548L19.51 16.669ZM18.3311 15.49L19.7453 14.0758L18.3277 12.6582L16.9135 14.0791L18.3311 15.49ZM14.75 19.088L13.3325 17.6771L12.75 18.2623V19.088H14.75ZM14.75 20.251H12.75V22.251H14.75V20.251ZM15.9131 20.251V22.251H16.7391L17.3244 21.6682L15.9131 20.251ZM9.75 19C9.75 18.3094 10.3094 17.75 11 17.75V21.75C12.5186 21.75 13.75 20.5186 13.75 19H9.75ZM11 17.75H5V21.75H11V17.75ZM5 17.75C4.1485 17.75 3.78588 17.521 3.63246 17.3675C3.47905 17.2141 3.25 16.8515 3.25 16H-0.75C-0.75 17.5665 -0.313046 19.0789 0.804036 20.196C1.92112 21.313 3.4335 21.75 5 21.75V17.75ZM3.25 16V7H-0.75V16H3.25ZM3.25 7C3.25 6.1485 3.47905 5.78588 3.63246 5.63246C3.78588 5.47905 4.1485 5.25 5 5.25V1.25C3.4335 1.25 1.92112 1.68695 0.804036 2.80404C-0.313046 3.92112 -0.75 5.4335 -0.75 7H3.25ZM5 5.25H17V1.25H5V5.25ZM17 5.25C17.8515 5.25 18.2141 5.47905 18.3675 5.63246C18.521 5.78588 18.75 6.1485 18.75 7H22.75C22.75 5.4335 22.313 3.92112 21.196 2.80404C20.0789 1.68695 18.5665 1.25 17 1.25V5.25ZM18.75 7V10H22.75V7H18.75ZM18.75 10C18.75 9.30943 19.3094 8.75 20 8.75V12.75C21.5186 12.75 22.75 11.5186 22.75 10H18.75ZM20 8.75C20.6906 8.75 21.25 9.30943 21.25 10H17.25C17.25 11.5186 18.4814 12.75 20 12.75V8.75ZM21.25 10V7H17.25V10H21.25ZM21.25 7C21.25 5.98249 21.0407 4.77956 20.1306 3.86941C19.2204 2.95926 18.0175 2.75 17 2.75V6.75C17.262 6.75 17.3892 6.77919 17.4282 6.79119C17.4531 6.79886 17.3854 6.78107 17.3022 6.69784C17.2189 6.61461 17.2011 6.54694 17.2088 6.57184C17.2208 6.61082 17.25 6.73795 17.25 7H21.25ZM17 2.75H5V6.75H17V2.75ZM5 2.75C3.98249 2.75 2.77956 2.95926 1.86941 3.86941C0.959263 4.77956 0.75 5.98249 0.75 7H4.75C4.75 6.73795 4.77919 6.61082 4.79119 6.57184C4.79886 6.54694 4.78107 6.61461 4.69784 6.69784C4.61461 6.78107 4.54694 6.79886 4.57184 6.79119C4.61082 6.77919 4.73795 6.75 5 6.75V2.75ZM0.75 7V16H4.75V7H0.75ZM0.75 16C0.75 17.0175 0.959263 18.2204 1.86941 19.1306C2.77956 20.0407 3.98249 20.25 5 20.25V16.25C4.73795 16.25 4.61082 16.2208 4.57184 16.2088C4.54694 16.2011 4.61461 16.2189 4.69784 16.3022C4.78107 16.3854 4.79886 16.4531 4.79119 16.4282C4.77919 16.3892 4.75 16.262 4.75 16H0.75ZM5 20.25H11V16.25H5V20.25ZM11 20.25C10.3094 20.25 9.75 19.6906 9.75 19H13.75C13.75 17.4814 12.5186 16.25 11 16.25V20.25ZM18.7232 6.38237C17.833 5.15874 16.1156 4.87954 14.882 5.77632L17.2342 9.01168C16.6746 9.41845 15.8929 9.29127 15.4887 8.73564L18.7232 6.38237ZM14.8819 5.77646L9.96975 9.34846L12.3222 12.5835L17.2344 9.01154L14.8819 5.77646ZM9.98177 9.33979C10.5899 8.90441 11.4091 8.90441 12.0173 9.33979L9.6888 12.5922C10.4729 13.1536 11.5261 13.1536 12.3102 12.5922L9.98177 9.33979ZM12.0293 9.34846L7.11717 5.77646L4.76467 9.01154L9.67678 12.5835L12.0293 9.34846ZM7.1147 5.77466C5.87875 4.87879 4.16602 5.16244 3.27748 6.38007L6.50865 8.73794C6.10611 9.28957 5.32708 9.41921 4.76714 9.01333L7.1147 5.77466ZM3.27643 6.38151C2.38268 7.6086 2.65143 9.33202 3.88377 10.2259L6.23244 6.98806C6.79478 7.39597 6.91546 8.17942 6.5097 8.7365L3.27643 6.38151ZM3.88182 10.2245L8.79368 13.7965L11.1463 10.5615L6.23439 6.98948L3.88182 10.2245ZM8.79363 13.7965C9.44941 14.2734 10.2237 14.515 10.999 14.515V10.515C11.0543 10.515 11.1065 10.5326 11.1463 10.5615L8.79363 13.7965ZM10.999 14.515C11.7726 14.515 12.5495 14.2744 13.2069 13.7947L10.8492 10.5634C10.8927 10.5316 10.9455 10.515 10.999 10.515V14.515ZM13.2044 13.7965L18.1162 10.2245L15.7637 6.98948L10.8518 10.5615L13.2044 13.7965ZM18.1151 10.2253C19.3411 9.33503 19.6232 7.61299 18.7203 6.37837L15.4916 8.73964C15.0787 8.17502 15.2108 7.39096 15.7647 6.98869L18.1151 10.2253ZM20.75 14.8774C20.7502 14.7877 20.7892 14.6912 20.8561 14.6245L23.68 17.4575C24.367 16.7728 24.7478 15.8523 24.75 14.8866L20.75 14.8774ZM20.8572 14.6234L15.3411 20.1134L18.1628 22.9486L23.6789 17.4586L20.8572 14.6234ZM15.3428 20.1118C15.5725 19.8837 15.8874 19.75 16.2229 19.75V23.75C16.9544 23.75 17.6494 23.4583 18.1611 22.9502L15.3428 20.1118ZM16.2229 19.75H14V23.75H16.2229V19.75ZM14 19.75C14.6906 19.75 15.25 20.3094 15.25 21H11.25C11.25 22.5186 12.4814 23.75 14 23.75V19.75ZM15.25 21V18.778H11.25V21H15.25ZM15.25 18.778C15.25 19.1034 15.122 19.4261 14.8782 19.6682L12.0598 16.8298C11.534 17.3518 11.25 18.0566 11.25 18.778H15.25ZM14.8865 19.6599L20.3775 14.1429L17.5424 11.3211L12.0514 16.8381L14.8865 19.6599ZM20.3787 14.1416C20.3116 14.2092 20.2125 14.25 20.1189 14.25V10.25C19.1493 10.25 18.2264 10.6328 17.5412 11.3224L20.3787 14.1416ZM20.1189 12.25C20.1189 14.25 20.1189 14.25 20.1189 14.25C20.1189 14.25 20.1189 14.25 20.1189 14.25C20.1189 14.25 20.1189 14.25 20.1189 14.25C20.1189 14.25 20.1189 14.25 20.1189 14.25C20.1189 14.25 20.1189 14.25 20.1189 14.25C20.1189 14.25 20.1189 14.25 20.1189 14.25C20.1189 14.25 20.1189 14.25 20.1189 14.25C20.1189 14.25 20.1189 14.25 20.1189 14.25C20.1189 14.25 20.1189 14.25 20.1189 14.25C20.1189 14.25 20.1189 14.25 20.1189 14.25C20.1189 14.25 20.1189 14.25 20.1189 14.25C20.1189 14.25 20.1189 14.25 20.1189 14.25C20.1189 14.25 20.1189 14.25 20.1189 14.25C20.1189 14.25 20.1189 14.25 20.1189 14.25C20.1189 14.25 20.1189 14.25 20.1189 14.25C20.1189 14.25 20.1189 14.25 20.1189 14.25C20.1189 14.25 20.1189 14.25 20.1189 14.25C20.1189 14.25 20.1189 14.25 20.1189 14.25C20.1189 14.25 20.1189 14.25 20.1189 14.25C20.1189 14.25 20.1189 14.25 20.1189 14.25C20.1189 14.25 20.1189 14.25 20.1189 14.25C20.1189 14.25 20.1189 14.25 20.1189 14.25C20.1189 14.25 20.1189 14.25 20.1189 14.25C20.1189 14.25 20.1189 14.25 20.1189 14.25C20.1189 14.25 20.1189 14.25 20.1189 14.25C20.1189 14.25 20.1189 14.25 20.1189 14.25C20.1189 14.25 20.1189 14.25 20.1189 14.25C20.1189 14.25 20.1189 14.25 20.1189 14.25C20.1189 14.25 20.1189 14.25 20.1189 14.25C20.1189 14.25 20.1189 14.25 20.1189 14.25C20.1189 14.25 20.1189 14.25 20.1189 14.25C20.1189 14.25 20.1189 14.25 20.1189 14.25C20.1189 14.25 20.1189 14.25 20.1189 14.25C20.1189 14.25 20.1189 14.25 20.1189 14.25C20.1189 14.25 20.1189 14.25 20.1189 14.25C20.1189 14.25 20.1189 14.25 20.1189 14.25C20.1189 14.25 20.1189 14.25 20.1189 14.25C20.1189 14.25 20.1189 14.25 20.1189 14.25C20.1189 14.25 20.1189 14.25 20.1189 14.25C20.1189 14.25 20.1189 14.25 20.1189 14.25C20.1189 14.25 20.1189 14.25 20.1189 14.25C20.1189 14.25 20.1189 14.25 20.1189 14.25C20.1189 14.25 20.1189 14.25 20.1189 14.25C20.1189 14.25 20.1189 14.25 20.1189 14.25C20.1189 14.25 20.1189 14.25 20.1189 14.25C20.1189 14.25 20.1189 14.25 20.1189 14.25C20.1189 14.25 20.1189 14.25 20.1189 14.25C20.1189 14.25 20.1189 14.25 20.1189 14.25C20.1189 14.25 20.1189 14.25 20.1189 14.25C20.1189 14.25 20.1189 14.25 20.1189 14.25C20.1189 14.25 20.1189 14.25 20.1189 14.25C20.1189 14.25 20.1189 14.25 20.1189 14.25C20.1189 14.25 20.1189 14.25 20.1189 14.25C20.1189 14.25 20.1189 14.25 20.1189 14.25C20.1189 14.25 20.1189 14.25 20.1189 14.25C20.1189 14.25 20.1189 14.25 20.1189 14.25C20.1189 14.25 20.1189 14.25 20.1189 14.25C20.1189 14.25 20.1189 14.25 20.1189 14.25C20.1189 14.25 20.1189 14.25 20.1189 14.25C20.1189 14.25 20.1189 14.25 20.1189 14.25C20.1189 14.25 20.1189 14.25 20.1189 14.25C20.1189 14.25 20.1189 14.25 20.1189 14.25C20.1189 14.25 20.1189 14.25 20.1189 14.25C20.1189 14.25 20.1189 14.25 20.1189 14.25C20.119 14.25 20.119 14.25 20.119 14.25C20.119 14.25 20.119 14.25 20.119 14.25C20.119 14.25 20.119 14.25 20.119 14.25C20.119 14.25 20.119 14.25 20.119 14.25C20.119 14.25 20.119 14.25 20.119 14.25C20.119 14.25 20.119 14.25 20.119 14.25C20.119 14.25 20.119 14.25 20.119 14.25C20.119 14.25 20.119 14.25 20.119 14.25C20.119 14.25 20.119 14.25 20.119 14.25C20.119 14.25 20.119 14.25 20.119 14.25C20.119 14.25 20.119 14.25 20.119 14.25C20.119 14.25 20.119 14.25 20.119 14.25C20.119 14.25 20.119 14.25 20.119 14.25C20.119 14.25 20.119 14.25 20.119 14.25C20.119 14.25 20.119 14.25 20.119 14.25C20.119 14.25 20.119 14.25 20.119 14.25C20.119 14.25 20.119 14.25 20.119 14.25C20.119 14.25 20.119 14.25 20.119 14.25C20.119 14.25 20.119 14.25 20.119 14.25C20.119 14.25 20.119 14.25 20.119 14.25C20.119 14.25 20.119 14.25 20.119 14.25C20.119 14.25 20.119 14.25 20.119 14.25C20.119 14.25 20.119 14.25 20.119 14.25C20.119 14.25 20.119 14.25 20.119 14.25C20.119 14.25 20.119 14.25 20.119 14.25C20.119 14.25 20.119 14.25 20.119 14.25C20.119 14.25 20.119 14.25 20.119 14.25C20.119 14.25 20.119 14.25 20.119 14.25C20.119 14.25 20.119 14.25 20.119 14.25C20.119 14.25 20.119 14.25 20.119 14.25C20.119 14.25 20.119 14.25 20.119 14.25C20.119 14.25 20.119 14.25 20.119 14.25C20.119 14.25 20.119 14.25 20.119 14.25C20.119 14.25 20.119 14.25 20.119 14.25C20.119 14.25 20.119 14.25 20.119 14.25C20.119 14.25 20.119 14.25 20.119 14.25C20.119 14.25 20.119 14.25 20.119 14.25C20.119 14.25 20.119 14.25 20.119 14.25C20.119 14.25 20.119 14.25 20.119 14.25C20.119 14.25 20.119 14.25 20.119 14.25C20.119 14.25 20.119 14.25 20.119 14.25C20.119 14.25 20.119 14.25 20.119 14.25C20.119 14.25 20.119 14.25 20.119 14.25C20.119 14.25 20.119 14.25 20.119 14.25C20.119 14.25 20.119 14.25 20.119 14.25C20.119 14.25 20.119 14.25 20.119 14.25C20.119 14.25 20.1191 14.25 20.1191 14.25C20.1191 14.25 20.1191 14.25 20.1191 14.25C20.1191 14.25 20.1191 14.25 20.1191 14.25C20.1191 14.25 20.1191 14.25 20.1191 14.25C20.1191 14.25 20.1191 14.25 20.1191 14.25C20.1191 14.25 20.1191 14.25 20.1191 14.25C20.1191 14.25 20.1191 14.25 20.1191 14.25C20.1191 14.25 20.1191 14.25 20.1191 14.25C20.1191 14.25 20.1191 14.25 20.1191 14.25C20.1191 14.25 20.1191 14.25 20.1191 14.25C20.1191 14.25 20.1191 14.25 20.1191 14.25C20.1191 14.25 20.1191 14.25 20.1191 14.25C20.1191 14.25 20.1191 14.25 20.1191 14.25C20.1191 14.25 20.1191 14.25 20.1191 14.25C20.1191 14.25 20.1191 14.25 20.1191 14.25C20.1191 14.25 20.1191 14.25 20.1191 14.25C20.1191 14.25 20.1191 14.25 20.1191 14.25C20.1191 14.25 20.1191 14.25 20.1191 14.25C20.1191 14.25 20.1191 14.25 20.1191 14.25C20.1191 14.25 20.1191 14.25 20.1191 14.25C20.1191 14.25 20.1191 14.25 20.1191 14.25C20.1191 14.25 20.1191 14.25 20.1191 14.25C20.1191 14.25 20.1191 14.25 20.1191 14.25C20.1191 14.25 20.1191 14.25 20.1191 14.25C20.1191 14.25 20.1191 14.25 20.1191 14.25C20.1191 14.25 20.1191 14.25 20.1191 14.25C20.1191 14.25 20.1191 14.25 20.1191 14.25C20.1191 14.25 20.1191 14.25 20.1191 14.25C20.1191 14.25 20.1191 14.25 20.1191 14.25C20.1191 14.25 20.1191 14.25 20.1191 14.25C20.1191 14.25 20.1191 14.25 20.1191 14.25C20.1191 14.25 20.1191 14.25 20.1191 14.25C20.1191 14.25 20.1191 14.25 20.1191 14.25C20.1191 14.25 20.1191 14.25 20.1191 14.25C20.1192 14.25 20.1192 14.25 20.1192 14.25C20.1192 14.25 20.1192 14.25 20.1192 14.25C20.1192 14.25 20.1192 14.25 20.1192 14.25C20.1192 14.25 20.1192 14.25 20.1192 14.25C20.1192 14.25 20.1192 14.25 20.1192 14.25C20.1192 14.25 20.1192 14.25 20.1192 14.25C20.1192 14.25 20.1192 14.25 20.1192 14.25C20.1192 14.25 20.1192 14.25 20.1192 14.25C20.1192 14.25 20.1192 14.25 20.1192 14.25C20.1192 14.25 20.1192 14.25 20.1192 14.25C20.1192 14.25 20.1192 14.25 20.1192 14.25C20.1192 14.25 20.1192 14.25 20.1192 14.25C20.1192 14.25 20.1192 14.25 20.1192 14.25C20.1192 14.25 20.1192 14.25 20.1192 14.25C20.1192 14.25 20.1192 14.25 20.1192 14.25C20.1192 14.25 20.1192 14.25 20.1192 14.25C20.1192 14.25 20.1192 14.25 20.1192 14.25C20.1192 14.25 20.1192 14.25 20.1192 14.25C20.1192 14.25 20.1192 14.25 20.1192 14.25C20.1192 14.25 20.1192 14.25 20.1192 14.25C20.1192 14.25 20.1192 14.25 20.1192 14.25C20.1192 14.25 20.1192 14.25 20.1192 14.25C20.1192 14.25 20.1192 14.25 20.1192 14.25C20.1192 14.25 20.1192 14.25 20.1192 14.25C20.1192 14.25 20.1192 14.25 20.1192 14.25C20.1192 14.25 20.1192 14.25 20.1192 14.25C20.1192 14.25 20.1192 14.25 20.1192 14.25C20.1192 14.25 20.1192 14.25 20.1192 14.25C20.1193 14.25 20.1193 14.25 20.1193 14.25C20.1193 14.25 20.1193 14.25 20.1193 14.25C20.1193 14.25 20.1193 14.25 20.1193 14.25C20.1193 14.25 20.1193 14.25 20.1193 14.25C20.1193 14.25 20.1193 14.25 20.1193 14.25C20.1193 14.25 20.1193 14.25 20.1193 14.25C20.1193 14.25 20.1193 14.25 20.1193 14.25C20.1193 14.25 20.1193 14.25 20.1193 14.25C20.1193 14.25 20.1193 14.25 20.1193 14.25C20.1193 14.25 20.1193 14.25 20.1193 14.25C20.1193 14.25 20.1193 14.25 20.1193 14.25C20.1193 14.25 20.1193 14.25 20.1193 14.25C20.1193 14.25 20.1193 14.25 20.1193 14.25C20.1193 14.25 20.1193 14.25 20.1193 14.25C20.1193 14.25 20.1193 14.25 20.1193 14.25C20.1193 14.25 20.1193 14.25 20.1193 14.25C20.1193 14.25 20.1193 14.25 20.1193 14.25C20.1193 14.25 20.1193 14.25 20.1193 14.25C20.1193 14.25 20.1193 14.25 20.1193 14.25C20.1193 14.25 20.1193 14.25 20.1193 14.25C20.1193 14.25 20.1193 14.25 20.1193 14.25C20.1193 14.25 20.1193 14.25 20.1193 14.25C20.1193 14.25 20.1193 14.25 20.1193 14.25C20.1193 14.25 20.1193 14.25 20.1193 14.25C20.1193 14.25 20.1193 14.25 20.1193 14.25C20.1194 14.25 20.1194 14.25 20.1194 14.25C20.1194 14.25 20.1194 14.25 20.1194 14.25C20.1194 14.25 20.1194 14.25 20.1194 14.25C20.1194 14.25 20.1194 14.25 20.1194 14.25C20.1194 14.25 20.1194 14.25 20.1194 14.25C20.1194 14.25 20.1194 14.25 20.1194 14.25C20.1194 14.25 20.1194 14.25 20.1194 14.25C20.1194 14.25 20.1194 14.25 20.1194 14.25C20.1194 14.25 20.1194 14.25 20.1194 14.25C20.1194 14.25 20.1194 14.25 20.1194 14.25C20.1194 14.25 20.1194 14.25 20.1194 14.25C20.1194 14.25 20.1194 14.25 20.1194 14.25C20.1194 14.25 20.1194 14.25 20.1194 14.25C20.1194 14.25 20.1194 14.25 20.1194 14.25C20.1194 14.25 20.1194 14.25 20.1194 14.25C20.1194 14.25 20.1194 14.25 20.1194 14.25C20.1194 14.25 20.1194 14.25 20.1194 14.25C20.1194 14.25 20.1194 14.25 20.1194 14.25C20.1194 14.25 20.1194 14.25 20.1194 14.25C20.1194 14.25 20.1194 14.25 20.1194 14.25C20.1194 14.25 20.1194 14.25 20.1194 14.25C20.1194 14.25 20.1194 14.25 20.1194 14.25C20.1194 14.25 20.1194 14.25 20.1194 14.25C20.1195 14.25 20.1195 14.25 20.1195 14.25C20.1195 14.25 20.1195 14.25 20.1195 14.25C20.1195 14.25 20.1195 14.25 20.1195 14.25C20.1195 14.25 20.1195 14.25 20.1195 14.25C20.1195 14.25 20.1195 14.25 20.1195 14.25C20.1195 14.25 20.1195 14.25 20.1195 14.25C20.1195 14.25 20.1195 14.25 20.1195 14.25C20.1195 14.25 20.1195 14.25 20.1195 14.25C20.1195 14.25 20.1195 14.25 20.1195 14.25C20.1195 14.25 20.1195 14.25 20.1195 14.25C20.1195 14.25 20.1195 14.25 20.1195 14.25C20.1195 14.25 20.1195 14.25 20.1195 14.25C20.1195 14.25 20.1195 14.25 20.1195 14.25C20.1195 14.25 20.1195 14.25 20.1195 14.25C20.1195 14.25 20.1195 14.25 20.1195 14.25C20.1195 14.25 20.1195 14.25 20.1195 14.25C20.1195 14.25 20.1195 14.25 20.1195 14.25C20.1195 14.25 20.1195 14.25 20.1195 14.25C20.1195 14.25 20.1195 14.25 20.1195 14.25C20.1195 14.25 20.1195 14.25 20.1195 14.25C20.1195 14.25 20.1195 14.25 20.1195 14.25C20.1195 14.25 20.1196 14.25 20.1196 14.25C20.1196 14.25 20.1196 14.25 20.1196 14.25C20.1196 14.25 20.1196 14.25 20.1196 14.25C20.1196 14.25 20.1196 14.25 20.1196 14.25C20.1196 14.25 20.1196 14.25 20.1196 14.25C20.1196 14.25 20.1196 14.25 20.1196 14.25C20.1196 14.25 20.1196 14.25 20.1196 14.25C20.1196 14.25 20.1196 14.25 20.1196 14.25C20.1196 14.25 20.1196 14.25 20.1196 14.25C20.1196 14.25 20.1196 14.25 20.1196 14.25C20.1196 14.25 20.1196 14.25 20.1196 14.25C20.1196 14.25 20.1196 14.25 20.1196 14.25C20.1196 14.25 20.1196 14.25 20.1196 14.25C20.1196 14.25 20.1196 14.25 20.1196 14.25C20.1196 14.25 20.1196 14.25 20.1196 14.25C20.1196 14.25 20.1196 14.25 20.1196 14.25C20.1196 14.25 20.1196 14.25 20.1196 14.25C20.1196 14.25 20.1196 14.25 20.1196 14.25C20.1196 14.25 20.1196 14.25 20.1196 14.25C20.1196 14.25 20.1196 14.25 20.1196 14.25C20.1196 14.25 20.1196 14.25 20.1197 14.25C20.1197 14.25 20.1197 14.25 20.1197 14.25C20.1197 14.25 20.1197 14.25 20.1197 14.25C20.1197 14.25 20.1197 14.25 20.1197 14.25C20.1197 14.25 20.1197 14.25 20.1197 14.25C20.1197 14.25 20.1197 14.25 20.1197 14.25C20.1197 14.25 20.1197 14.25 20.1197 14.25C20.1197 14.25 20.1197 14.25 20.1197 14.25C20.1197 14.25 20.1197 14.25 20.1197 14.25C20.1197 14.25 20.1197 14.25 20.1197 14.25C20.1197 14.25 20.1197 14.25 20.1197 14.25C20.1197 14.25 20.1197 14.25 20.1197 14.25C20.1197 14.25 20.1197 14.25 20.1197 14.25C20.1197 14.25 20.1197 14.25 20.1197 14.25C20.1197 14.25 20.1197 14.25 20.1197 14.25C20.1197 14.25 20.1197 14.25 20.1197 14.25C20.1197 14.25 20.1197 14.25 20.1197 14.25C20.1197 14.25 20.1197 14.25 20.1197 14.25C20.1197 14.25 20.1197 14.25 20.1197 14.25C20.1197 14.25 20.1197 14.25 20.1197 14.25C20.1197 14.25 20.1198 14.25 20.1198 14.25C20.1198 14.25 20.1198 14.25 20.1198 14.25C20.1198 14.25 20.1198 14.25 20.1198 14.25C20.1198 14.25 20.1198 14.25 20.1198 14.25C20.1198 14.25 20.1198 14.25 20.1198 14.25C20.1198 14.25 20.1198 14.25 20.1198 14.25C20.1198 14.25 20.1198 14.25 20.1198 14.25C20.1198 14.25 20.1198 14.25 20.1198 14.25C20.1198 14.25 20.1198 14.25 20.1198 14.25C20.1198 14.25 20.1198 14.25 20.1198 14.25C20.1198 14.25 20.1198 14.25 20.1198 14.25C20.1198 14.25 20.1198 14.25 20.1198 14.25C20.1198 14.25 20.1198 14.25 20.1198 14.25C20.1198 14.25 20.1198 14.25 20.1198 14.25C20.1198 14.25 20.1198 14.25 20.1198 14.25C20.1198 14.25 20.1198 14.25 20.1198 14.25C20.1198 14.25 20.1198 14.25 20.1198 14.25C20.1198 14.25 20.1198 14.25 20.1198 14.25C20.1198 14.25 20.1198 14.25 20.1198 14.25C20.1199 14.25 20.1199 14.25 20.1199 14.25C20.1199 14.25 20.1199 14.25 20.1199 14.25C20.1199 14.25 20.1199 14.25 20.1199 14.25C20.1199 14.25 20.1199 14.25 20.1199 14.25C20.1199 14.25 20.1199 14.25 20.1199 14.25C20.1199 14.25 20.1199 14.25 20.1199 14.25C20.1199 14.25 20.1199 14.25 20.1199 14.25C20.1199 14.25 20.1199 14.25 20.1199 14.25C20.1199 14.25 20.1199 14.25 20.1199 14.25C20.1199 14.25 20.1199 14.25 20.1199 14.25C20.1199 14.25 20.1199 14.25 20.1199 14.25C20.1199 14.25 20.1199 14.25 20.1199 14.25C20.1199 14.25 20.1199 14.25 20.1199 14.25C20.1199 14.25 20.1199 14.25 20.1199 14.25C20.1199 14.25 20.1199 14.25 20.1199 14.25C20.1199 14.25 20.1199 14.25 20.1199 14.25C20.1199 14.25 20.1199 14.25 20.1199 14.25C20.1199 14.25 20.1199 14.25 20.1199 14.25C20.1199 14.25 20.12 14.25 20.12 14.25C20.12 14.25 20.12 14.25 20.12 14.25C20.12 14.25 20.12 14.25 20.12 14.25C20.12 14.25 20.12 14.25 20.12 14.25C20.12 14.25 20.12 14.25 20.12 14.25C20.12 14.25 20.12 14.25 20.12 14.25C20.12 14.25 20.12 14.25 20.12 14.25C20.12 14.25 20.12 14.25 20.12 14.25C20.12 14.25 20.12 14.25 20.12 14.25C20.12 14.25 20.12 14.25 20.12 14.25C20.12 14.25 20.12 14.25 20.12 14.25C20.12 14.25 20.12 14.25 20.12 14.25C20.12 14.25 20.12 14.25 20.12 14.25C20.12 14.25 20.12 14.25 20.12 14.25C20.12 14.25 20.12 14.25 20.12 14.25C20.12 14.25 20.12 14.25 20.12 14.25C20.12 14.25 20.12 14.25 20.12 14.25C20.12 14.25 20.12 14.25 20.12 14.25C20.1201 14.25 20.1201 14.25 20.1201 14.25C20.1201 14.25 20.1201 14.25 20.1201 14.25C20.1201 14.25 20.1201 14.25 20.1201 14.25C20.1201 14.25 20.1201 14.25 20.1201 14.25C20.1201 14.25 20.1201 14.25 20.1201 14.25C20.1201 14.25 20.1201 14.25 20.1201 14.25C20.1201 14.25 20.1201 14.25 20.1201 14.25C20.1201 14.25 20.1201 14.25 20.1201 14.25C20.1201 14.25 20.1201 14.25 20.1201 14.25C20.1201 14.25 20.1201 14.25 20.1201 14.25C20.1201 14.25 20.1201 14.25 20.1201 14.25C20.1201 14.25 20.1201 14.25 20.1201 14.25C20.1201 14.25 20.1201 14.25 20.1201 14.25C20.1201 14.25 20.1201 14.25 20.1201 14.25C20.1201 14.25 20.1201 14.25 20.1201 14.25C20.1201 14.25 20.1201 14.25 20.1201 14.25C20.1201 14.25 20.1201 14.25 20.1201 14.25C20.1201 14.25 20.1202 14.25 20.1202 14.25C20.1202 14.25 20.1202 14.25 20.1202 14.25C20.1202 14.25 20.1202 14.25 20.1202 14.25C20.1202 14.25 20.1202 14.25 20.1202 14.25C20.1202 14.25 20.1202 14.25 20.1202 14.25C20.1202 14.25 20.1202 14.25 20.1202 14.25C20.1202 14.25 20.1202 14.25 20.1202 14.25C20.1202 14.25 20.1202 14.25 20.1202 14.25C20.1202 14.25 20.1202 14.25 20.1202 14.25C20.1202 14.25 20.1202 14.25 20.1202 14.25C20.1202 14.25 20.1202 14.25 20.1202 14.25C20.1202 14.25 20.1202 14.25 20.1202 14.25C20.1202 14.25 20.1202 14.25 20.1202 14.25C20.1202 14.25 20.1202 14.25 20.1202 14.25C20.1202 14.25 20.1202 14.25 20.1202 14.25C20.1202 14.25 20.1202 14.25 20.1202 14.25C20.1202 14.25 20.1202 14.25 20.1202 14.25C20.1202 14.25 20.1202 14.25 20.1203 14.25C20.1203 14.25 20.1203 14.25 20.1203 14.25C20.1203 14.25 20.1203 14.25 20.1203 14.25C20.1203 14.25 20.1203 14.25 20.1203 14.25C20.1203 14.25 20.1203 14.25 20.1203 14.25C20.1203 14.25 20.1203 14.25 20.1203 14.25C20.1203 14.25 20.1203 14.25 20.1203 14.25C20.1203 14.25 20.1203 14.25 20.1203 14.25C20.1203 14.25 20.1203 14.25 20.1203 14.25C20.1203 14.25 20.1203 14.25 20.1203 14.25C20.1203 14.25 20.1203 14.25 20.1203 14.25C20.1203 14.25 20.1203 14.25 20.1203 14.25C20.1203 14.25 20.1203 14.25 20.1203 14.25C20.1203 14.25 20.1203 14.25 20.1203 14.25C20.1203 14.25 20.1203 14.25 20.1203 14.25C20.1203 14.25 20.1203 14.25 20.1203 14.25C20.1203 14.25 20.1203 14.25 20.1203 14.25C20.1203 14.25 20.1204 14.25 20.1204 14.25C20.1204 14.25 20.1204 14.25 20.1204 14.25C20.1204 14.25 20.1204 14.25 20.1204 14.25C20.1204 14.25 20.1204 14.25 20.1204 14.25C20.1204 14.25 20.1204 14.25 20.1204 14.25C20.1204 14.25 20.1204 14.25 20.1204 14.25C20.1204 14.25 20.1204 14.25 20.1204 14.25C20.1204 14.25 20.1204 14.25 20.1204 14.25C20.1204 14.25 20.1204 14.25 20.1204 14.25C20.1204 14.25 20.1204 14.25 20.1204 14.25C20.1204 14.25 20.1204 14.25 20.1204 14.25C20.1204 14.25 20.1204 14.25 20.1204 14.25C20.1204 14.25 20.1204 14.25 20.1204 14.25C20.1204 14.25 20.1204 14.25 20.1204 14.25C20.1204 14.25 20.1204 14.25 20.1204 14.25C20.1204 14.25 20.1204 14.25 20.1204 14.25C20.1204 14.25 20.1204 14.25 20.1204 14.25C20.1204 14.25 20.1205 14.25 20.1205 14.25C20.1205 14.25 20.1205 14.25 20.1205 14.25C20.1205 14.25 20.1205 14.25 20.1205 14.25C20.1205 14.25 20.1205 14.25 20.1205 14.25C20.1205 14.25 20.1205 14.25 20.1205 14.25C20.1205 14.25 20.1205 14.25 20.1205 14.25C20.1205 14.25 20.1205 14.25 20.1205 14.25C20.1205 14.25 20.1205 14.25 20.1205 14.25C20.1205 14.25 20.1205 14.25 20.1205 14.25C20.1205 14.25 20.1205 14.25 20.1205 14.25C20.1205 14.25 20.1205 14.25 20.1205 14.25C20.1205 14.25 20.1205 14.25 20.1205 14.25C20.1205 14.25 20.1205 14.25 20.1205 14.25C20.1205 14.25 20.1205 14.25 20.1205 14.25C20.1205 14.25 20.1205 14.25 20.1205 14.25C20.1205 14.25 20.1205 14.25 20.1205 14.25C20.1205 14.25 20.1205 14.25 20.1205 14.25C20.1206 14.25 20.1206 14.25 20.1206 14.25C20.1206 14.25 20.1206 14.25 20.1206 14.25C20.1206 14.25 20.1206 14.25 20.1206 14.25C20.1206 14.25 20.1206 14.25 20.1206 14.25C20.1206 14.25 20.1206 14.25 20.1206 14.25C20.1206 14.25 20.1206 14.25 20.1206 14.25C20.1206 14.25 20.1206 14.25 20.1206 14.25C20.1206 14.25 20.1206 14.25 20.1206 14.25C20.1206 14.25 20.1206 14.25 20.1206 14.25C20.1206 14.25 20.1206 14.25 20.1206 14.25C20.1206 14.25 20.1206 14.25 20.1206 14.25C20.1206 14.25 20.1206 14.25 20.1206 14.25C20.1206 14.25 20.1206 14.25 20.1206 14.25C20.1206 14.25 20.1206 14.25 20.1206 14.25C20.1206 14.25 20.1206 14.25 20.1206 14.25C20.1206 14.25 20.1206 14.25 20.1206 14.25C20.1206 14.25 20.1206 14.25 20.1207 14.25C20.1207 14.25 20.1207 14.25 20.1207 14.25C20.1207 14.25 20.1207 14.25 20.1207 14.25C20.1207 14.25 20.1207 14.25 20.1207 14.25C20.1207 14.25 20.1207 14.25 20.1207 14.25C20.1207 14.25 20.1207 14.25 20.1207 14.25C20.1207 14.25 20.1207 14.25 20.1207 14.25C20.1207 14.25 20.1207 14.25 20.1207 14.25C20.1207 14.25 20.1207 14.25 20.1207 14.25C20.1207 14.25 20.1207 14.25 20.1207 14.25C20.1207 14.25 20.1207 14.25 20.1207 14.25C20.1207 14.25 20.1207 14.25 20.1207 14.25C20.1207 14.25 20.1207 14.25 20.1207 14.25C20.1207 14.25 20.1207 14.25 20.1207 14.25C20.1207 14.25 20.1207 14.25 20.1207 14.25C20.1207 14.25 20.1207 14.25 20.1207 14.25C20.1207 14.25 20.1207 14.25 20.1207 14.25C20.1208 14.25 20.1208 14.25 20.1208 14.25C20.1208 14.25 20.1208 14.25 20.1208 14.25C20.1208 14.25 20.1208 14.25 20.1208 14.25C20.1208 14.25 20.1208 14.25 20.1208 14.25C20.1208 14.25 20.1208 14.25 20.1208 14.25C20.1208 14.25 20.1208 14.25 20.1208 14.25C20.1208 14.25 20.1208 14.25 20.1208 14.25C20.1208 14.25 20.1208 14.25 20.1208 14.25C20.1208 14.25 20.1208 14.25 20.1208 14.25C20.1208 14.25 20.1208 14.25 20.1208 14.25C20.1208 14.25 20.1208 14.25 20.1208 14.25C20.1208 14.25 20.1208 14.25 20.1208 14.25C20.1208 14.25 20.1208 14.25 20.1208 14.25C20.1208 14.25 20.1208 14.25 20.1208 14.25C20.1208 14.25 20.1208 14.25 20.1208 14.25C20.1208 14.25 20.1208 14.25 20.1208 14.25C20.1208 14.25 20.1208 14.25 20.1209 14.25C20.1209 14.25 20.1209 14.25 20.1209 14.25C20.1209 14.25 20.1209 14.25 20.1209 14.25C20.1209 14.25 20.1209 14.25 20.1209 14.25C20.1209 14.25 20.1209 14.25 20.1209 14.25C20.1209 14.25 20.1209 14.25 20.1209 14.25C20.1209 14.25 20.1209 14.25 20.1209 14.25C20.1209 14.25 20.1209 14.25 20.1209 14.25C20.1209 14.25 20.1209 14.25 20.1209 14.25C20.1209 14.25 20.1209 14.25 20.1209 14.25C20.1209 14.25 20.1209 14.25 20.1209 14.25C20.1209 14.25 20.1209 14.25 20.1209 14.25C20.1209 14.25 20.1209 14.25 20.1209 14.25C20.1209 14.25 20.1209 14.25 20.1209 14.25C20.1209 14.25 20.1209 14.25 20.1209 14.25C20.1209 14.25 20.1209 14.25 20.1209 14.25C20.1209 14.25 20.1209 14.25 20.1209 14.25C20.1209 14.25 20.1209 14.25 20.121 14.25C20.121 14.25 20.121 14.25 20.121 14.25C20.121 14.25 20.121 14.25 20.121 14.25C20.121 14.25 20.121 14.25 20.121 14.25C20.121 14.25 20.121 14.25 20.121 14.25C20.121 14.25 20.121 14.25 20.121 14.25C20.121 14.25 20.121 14.25 20.121 14.25C20.121 14.25 20.121 14.25 20.121 14.25C20.121 14.25 20.121 14.25 20.121 14.25C20.121 14.25 20.121 14.25 20.121 14.25C20.121 14.25 20.121 14.25 20.121 14.25C20.121 14.25 20.121 14.25 20.121 14.25C20.121 14.25 20.121 14.25 20.121 14.25C20.121 14.25 20.121 14.25 20.121 14.25C20.121 14.25 20.121 14.25 20.121 14.25C20.121 14.25 20.121 14.25 20.121 14.25C20.121 14.25 20.121 14.25 20.121 14.25C20.121 14.25 20.1211 14.25 20.1211 14.25C20.1211 14.25 20.1211 14.25 20.1211 14.25C20.1211 14.25 20.1211 14.25 20.1211 14.25C20.1211 14.25 20.1211 14.25 20.1211 14.25C20.1211 14.25 20.1211 14.25 20.1211 14.25C20.1211 14.25 20.1211 14.25 20.1211 14.25C20.1211 14.25 20.1211 14.25 20.1211 14.25C20.1211 14.25 20.1211 14.25 20.1211 14.25V10.25C20.1211 10.25 20.1211 10.25 20.1211 10.25C20.1211 10.25 20.1211 10.25 20.1211 10.25C20.1211 10.25 20.1211 10.25 20.1211 10.25C20.1211 10.25 20.1211 10.25 20.1211 10.25C20.1211 10.25 20.1211 10.25 20.1211 10.25C20.1211 10.25 20.1211 10.25 20.1211 10.25C20.1211 10.25 20.1211 10.25 20.1211 10.25C20.1211 10.25 20.121 10.25 20.121 10.25C20.121 10.25 20.121 10.25 20.121 10.25C20.121 10.25 20.121 10.25 20.121 10.25C20.121 10.25 20.121 10.25 20.121 10.25C20.121 10.25 20.121 10.25 20.121 10.25C20.121 10.25 20.121 10.25 20.121 10.25C20.121 10.25 20.121 10.25 20.121 10.25C20.121 10.25 20.121 10.25 20.121 10.25C20.121 10.25 20.121 10.25 20.121 10.25C20.121 10.25 20.121 10.25 20.121 10.25C20.121 10.25 20.121 10.25 20.121 10.25C20.121 10.25 20.121 10.25 20.121 10.25C20.121 10.25 20.121 10.25 20.121 10.25C20.121 10.25 20.121 10.25 20.121 10.25C20.121 10.25 20.121 10.25 20.121 10.25C20.121 10.25 20.121 10.25 20.121 10.25C20.121 10.25 20.121 10.25 20.121 10.25C20.1209 10.25 20.1209 10.25 20.1209 10.25C20.1209 10.25 20.1209 10.25 20.1209 10.25C20.1209 10.25 20.1209 10.25 20.1209 10.25C20.1209 10.25 20.1209 10.25 20.1209 10.25C20.1209 10.25 20.1209 10.25 20.1209 10.25C20.1209 10.25 20.1209 10.25 20.1209 10.25C20.1209 10.25 20.1209 10.25 20.1209 10.25C20.1209 10.25 20.1209 10.25 20.1209 10.25C20.1209 10.25 20.1209 10.25 20.1209 10.25C20.1209 10.25 20.1209 10.25 20.1209 10.25C20.1209 10.25 20.1209 10.25 20.1209 10.25C20.1209 10.25 20.1209 10.25 20.1209 10.25C20.1209 10.25 20.1209 10.25 20.1209 10.25C20.1209 10.25 20.1209 10.25 20.1209 10.25C20.1209 10.25 20.1209 10.25 20.1209 10.25C20.1209 10.25 20.1209 10.25 20.1209 10.25C20.1209 10.25 20.1209 10.25 20.1209 10.25C20.1208 10.25 20.1208 10.25 20.1208 10.25C20.1208 10.25 20.1208 10.25 20.1208 10.25C20.1208 10.25 20.1208 10.25 20.1208 10.25C20.1208 10.25 20.1208 10.25 20.1208 10.25C20.1208 10.25 20.1208 10.25 20.1208 10.25C20.1208 10.25 20.1208 10.25 20.1208 10.25C20.1208 10.25 20.1208 10.25 20.1208 10.25C20.1208 10.25 20.1208 10.25 20.1208 10.25C20.1208 10.25 20.1208 10.25 20.1208 10.25C20.1208 10.25 20.1208 10.25 20.1208 10.25C20.1208 10.25 20.1208 10.25 20.1208 10.25C20.1208 10.25 20.1208 10.25 20.1208 10.25C20.1208 10.25 20.1208 10.25 20.1208 10.25C20.1208 10.25 20.1208 10.25 20.1208 10.25C20.1208 10.25 20.1208 10.25 20.1208 10.25C20.1208 10.25 20.1208 10.25 20.1208 10.25C20.1208 10.25 20.1208 10.25 20.1207 10.25C20.1207 10.25 20.1207 10.25 20.1207 10.25C20.1207 10.25 20.1207 10.25 20.1207 10.25C20.1207 10.25 20.1207 10.25 20.1207 10.25C20.1207 10.25 20.1207 10.25 20.1207 10.25C20.1207 10.25 20.1207 10.25 20.1207 10.25C20.1207 10.25 20.1207 10.25 20.1207 10.25C20.1207 10.25 20.1207 10.25 20.1207 10.25C20.1207 10.25 20.1207 10.25 20.1207 10.25C20.1207 10.25 20.1207 10.25 20.1207 10.25C20.1207 10.25 20.1207 10.25 20.1207 10.25C20.1207 10.25 20.1207 10.25 20.1207 10.25C20.1207 10.25 20.1207 10.25 20.1207 10.25C20.1207 10.25 20.1207 10.25 20.1207 10.25C20.1207 10.25 20.1207 10.25 20.1207 10.25C20.1207 10.25 20.1207 10.25 20.1207 10.25C20.1207 10.25 20.1207 10.25 20.1207 10.25C20.1206 10.25 20.1206 10.25 20.1206 10.25C20.1206 10.25 20.1206 10.25 20.1206 10.25C20.1206 10.25 20.1206 10.25 20.1206 10.25C20.1206 10.25 20.1206 10.25 20.1206 10.25C20.1206 10.25 20.1206 10.25 20.1206 10.25C20.1206 10.25 20.1206 10.25 20.1206 10.25C20.1206 10.25 20.1206 10.25 20.1206 10.25C20.1206 10.25 20.1206 10.25 20.1206 10.25C20.1206 10.25 20.1206 10.25 20.1206 10.25C20.1206 10.25 20.1206 10.25 20.1206 10.25C20.1206 10.25 20.1206 10.25 20.1206 10.25C20.1206 10.25 20.1206 10.25 20.1206 10.25C20.1206 10.25 20.1206 10.25 20.1206 10.25C20.1206 10.25 20.1206 10.25 20.1206 10.25C20.1206 10.25 20.1206 10.25 20.1206 10.25C20.1206 10.25 20.1206 10.25 20.1206 10.25C20.1206 10.25 20.1206 10.25 20.1205 10.25C20.1205 10.25 20.1205 10.25 20.1205 10.25C20.1205 10.25 20.1205 10.25 20.1205 10.25C20.1205 10.25 20.1205 10.25 20.1205 10.25C20.1205 10.25 20.1205 10.25 20.1205 10.25C20.1205 10.25 20.1205 10.25 20.1205 10.25C20.1205 10.25 20.1205 10.25 20.1205 10.25C20.1205 10.25 20.1205 10.25 20.1205 10.25C20.1205 10.25 20.1205 10.25 20.1205 10.25C20.1205 10.25 20.1205 10.25 20.1205 10.25C20.1205 10.25 20.1205 10.25 20.1205 10.25C20.1205 10.25 20.1205 10.25 20.1205 10.25C20.1205 10.25 20.1205 10.25 20.1205 10.25C20.1205 10.25 20.1205 10.25 20.1205 10.25C20.1205 10.25 20.1205 10.25 20.1205 10.25C20.1205 10.25 20.1205 10.25 20.1205 10.25C20.1205 10.25 20.1205 10.25 20.1205 10.25C20.1205 10.25 20.1204 10.25 20.1204 10.25C20.1204 10.25 20.1204 10.25 20.1204 10.25C20.1204 10.25 20.1204 10.25 20.1204 10.25C20.1204 10.25 20.1204 10.25 20.1204 10.25C20.1204 10.25 20.1204 10.25 20.1204 10.25C20.1204 10.25 20.1204 10.25 20.1204 10.25C20.1204 10.25 20.1204 10.25 20.1204 10.25C20.1204 10.25 20.1204 10.25 20.1204 10.25C20.1204 10.25 20.1204 10.25 20.1204 10.25C20.1204 10.25 20.1204 10.25 20.1204 10.25C20.1204 10.25 20.1204 10.25 20.1204 10.25C20.1204 10.25 20.1204 10.25 20.1204 10.25C20.1204 10.25 20.1204 10.25 20.1204 10.25C20.1204 10.25 20.1204 10.25 20.1204 10.25C20.1204 10.25 20.1204 10.25 20.1204 10.25C20.1204 10.25 20.1204 10.25 20.1204 10.25C20.1204 10.25 20.1204 10.25 20.1204 10.25C20.1204 10.25 20.1203 10.25 20.1203 10.25C20.1203 10.25 20.1203 10.25 20.1203 10.25C20.1203 10.25 20.1203 10.25 20.1203 10.25C20.1203 10.25 20.1203 10.25 20.1203 10.25C20.1203 10.25 20.1203 10.25 20.1203 10.25C20.1203 10.25 20.1203 10.25 20.1203 10.25C20.1203 10.25 20.1203 10.25 20.1203 10.25C20.1203 10.25 20.1203 10.25 20.1203 10.25C20.1203 10.25 20.1203 10.25 20.1203 10.25C20.1203 10.25 20.1203 10.25 20.1203 10.25C20.1203 10.25 20.1203 10.25 20.1203 10.25C20.1203 10.25 20.1203 10.25 20.1203 10.25C20.1203 10.25 20.1203 10.25 20.1203 10.25C20.1203 10.25 20.1203 10.25 20.1203 10.25C20.1203 10.25 20.1203 10.25 20.1203 10.25C20.1203 10.25 20.1203 10.25 20.1203 10.25C20.1203 10.25 20.1203 10.25 20.1203 10.25C20.1202 10.25 20.1202 10.25 20.1202 10.25C20.1202 10.25 20.1202 10.25 20.1202 10.25C20.1202 10.25 20.1202 10.25 20.1202 10.25C20.1202 10.25 20.1202 10.25 20.1202 10.25C20.1202 10.25 20.1202 10.25 20.1202 10.25C20.1202 10.25 20.1202 10.25 20.1202 10.25C20.1202 10.25 20.1202 10.25 20.1202 10.25C20.1202 10.25 20.1202 10.25 20.1202 10.25C20.1202 10.25 20.1202 10.25 20.1202 10.25C20.1202 10.25 20.1202 10.25 20.1202 10.25C20.1202 10.25 20.1202 10.25 20.1202 10.25C20.1202 10.25 20.1202 10.25 20.1202 10.25C20.1202 10.25 20.1202 10.25 20.1202 10.25C20.1202 10.25 20.1202 10.25 20.1202 10.25C20.1202 10.25 20.1202 10.25 20.1202 10.25C20.1202 10.25 20.1202 10.25 20.1202 10.25C20.1202 10.25 20.1202 10.25 20.1202 10.25C20.1202 10.25 20.1201 10.25 20.1201 10.25C20.1201 10.25 20.1201 10.25 20.1201 10.25C20.1201 10.25 20.1201 10.25 20.1201 10.25C20.1201 10.25 20.1201 10.25 20.1201 10.25C20.1201 10.25 20.1201 10.25 20.1201 10.25C20.1201 10.25 20.1201 10.25 20.1201 10.25C20.1201 10.25 20.1201 10.25 20.1201 10.25C20.1201 10.25 20.1201 10.25 20.1201 10.25C20.1201 10.25 20.1201 10.25 20.1201 10.25C20.1201 10.25 20.1201 10.25 20.1201 10.25C20.1201 10.25 20.1201 10.25 20.1201 10.25C20.1201 10.25 20.1201 10.25 20.1201 10.25C20.1201 10.25 20.1201 10.25 20.1201 10.25C20.1201 10.25 20.1201 10.25 20.1201 10.25C20.1201 10.25 20.1201 10.25 20.1201 10.25C20.1201 10.25 20.1201 10.25 20.1201 10.25C20.1201 10.25 20.1201 10.25 20.1201 10.25C20.1201 10.25 20.1201 10.25 20.12 10.25C20.12 10.25 20.12 10.25 20.12 10.25C20.12 10.25 20.12 10.25 20.12 10.25C20.12 10.25 20.12 10.25 20.12 10.25C20.12 10.25 20.12 10.25 20.12 10.25C20.12 10.25 20.12 10.25 20.12 10.25C20.12 10.25 20.12 10.25 20.12 10.25C20.12 10.25 20.12 10.25 20.12 10.25C20.12 10.25 20.12 10.25 20.12 10.25C20.12 10.25 20.12 10.25 20.12 10.25C20.12 10.25 20.12 10.25 20.12 10.25C20.12 10.25 20.12 10.25 20.12 10.25C20.12 10.25 20.12 10.25 20.12 10.25C20.12 10.25 20.12 10.25 20.12 10.25C20.12 10.25 20.12 10.25 20.12 10.25C20.12 10.25 20.12 10.25 20.12 10.25C20.12 10.25 20.12 10.25 20.12 10.25C20.12 10.25 20.12 10.25 20.12 10.25C20.12 10.25 20.1199 10.25 20.1199 10.25C20.1199 10.25 20.1199 10.25 20.1199 10.25C20.1199 10.25 20.1199 10.25 20.1199 10.25C20.1199 10.25 20.1199 10.25 20.1199 10.25C20.1199 10.25 20.1199 10.25 20.1199 10.25C20.1199 10.25 20.1199 10.25 20.1199 10.25C20.1199 10.25 20.1199 10.25 20.1199 10.25C20.1199 10.25 20.1199 10.25 20.1199 10.25C20.1199 10.25 20.1199 10.25 20.1199 10.25C20.1199 10.25 20.1199 10.25 20.1199 10.25C20.1199 10.25 20.1199 10.25 20.1199 10.25C20.1199 10.25 20.1199 10.25 20.1199 10.25C20.1199 10.25 20.1199 10.25 20.1199 10.25C20.1199 10.25 20.1199 10.25 20.1199 10.25C20.1199 10.25 20.1199 10.25 20.1199 10.25C20.1199 10.25 20.1199 10.25 20.1199 10.25C20.1199 10.25 20.1199 10.25 20.1199 10.25C20.1199 10.25 20.1199 10.25 20.1199 10.25C20.1199 10.25 20.1199 10.25 20.1198 10.25C20.1198 10.25 20.1198 10.25 20.1198 10.25C20.1198 10.25 20.1198 10.25 20.1198 10.25C20.1198 10.25 20.1198 10.25 20.1198 10.25C20.1198 10.25 20.1198 10.25 20.1198 10.25C20.1198 10.25 20.1198 10.25 20.1198 10.25C20.1198 10.25 20.1198 10.25 20.1198 10.25C20.1198 10.25 20.1198 10.25 20.1198 10.25C20.1198 10.25 20.1198 10.25 20.1198 10.25C20.1198 10.25 20.1198 10.25 20.1198 10.25C20.1198 10.25 20.1198 10.25 20.1198 10.25C20.1198 10.25 20.1198 10.25 20.1198 10.25C20.1198 10.25 20.1198 10.25 20.1198 10.25C20.1198 10.25 20.1198 10.25 20.1198 10.25C20.1198 10.25 20.1198 10.25 20.1198 10.25C20.1198 10.25 20.1198 10.25 20.1198 10.25C20.1198 10.25 20.1198 10.25 20.1198 10.25C20.1198 10.25 20.1198 10.25 20.1198 10.25C20.1198 10.25 20.1198 10.25 20.1198 10.25C20.1198 10.25 20.1197 10.25 20.1197 10.25C20.1197 10.25 20.1197 10.25 20.1197 10.25C20.1197 10.25 20.1197 10.25 20.1197 10.25C20.1197 10.25 20.1197 10.25 20.1197 10.25C20.1197 10.25 20.1197 10.25 20.1197 10.25C20.1197 10.25 20.1197 10.25 20.1197 10.25C20.1197 10.25 20.1197 10.25 20.1197 10.25C20.1197 10.25 20.1197 10.25 20.1197 10.25C20.1197 10.25 20.1197 10.25 20.1197 10.25C20.1197 10.25 20.1197 10.25 20.1197 10.25C20.1197 10.25 20.1197 10.25 20.1197 10.25C20.1197 10.25 20.1197 10.25 20.1197 10.25C20.1197 10.25 20.1197 10.25 20.1197 10.25C20.1197 10.25 20.1197 10.25 20.1197 10.25C20.1197 10.25 20.1197 10.25 20.1197 10.25C20.1197 10.25 20.1197 10.25 20.1197 10.25C20.1197 10.25 20.1197 10.25 20.1197 10.25C20.1197 10.25 20.1197 10.25 20.1197 10.25C20.1197 10.25 20.1197 10.25 20.1197 10.25C20.1197 10.25 20.1197 10.25 20.1197 10.25C20.1196 10.25 20.1196 10.25 20.1196 10.25C20.1196 10.25 20.1196 10.25 20.1196 10.25C20.1196 10.25 20.1196 10.25 20.1196 10.25C20.1196 10.25 20.1196 10.25 20.1196 10.25C20.1196 10.25 20.1196 10.25 20.1196 10.25C20.1196 10.25 20.1196 10.25 20.1196 10.25C20.1196 10.25 20.1196 10.25 20.1196 10.25C20.1196 10.25 20.1196 10.25 20.1196 10.25C20.1196 10.25 20.1196 10.25 20.1196 10.25C20.1196 10.25 20.1196 10.25 20.1196 10.25C20.1196 10.25 20.1196 10.25 20.1196 10.25C20.1196 10.25 20.1196 10.25 20.1196 10.25C20.1196 10.25 20.1196 10.25 20.1196 10.25C20.1196 10.25 20.1196 10.25 20.1196 10.25C20.1196 10.25 20.1196 10.25 20.1196 10.25C20.1196 10.25 20.1196 10.25 20.1196 10.25C20.1196 10.25 20.1196 10.25 20.1196 10.25C20.1196 10.25 20.1196 10.25 20.1196 10.25C20.1196 10.25 20.1196 10.25 20.1196 10.25C20.1196 10.25 20.1196 10.25 20.1196 10.25C20.1196 10.25 20.1195 10.25 20.1195 10.25C20.1195 10.25 20.1195 10.25 20.1195 10.25C20.1195 10.25 20.1195 10.25 20.1195 10.25C20.1195 10.25 20.1195 10.25 20.1195 10.25C20.1195 10.25 20.1195 10.25 20.1195 10.25C20.1195 10.25 20.1195 10.25 20.1195 10.25C20.1195 10.25 20.1195 10.25 20.1195 10.25C20.1195 10.25 20.1195 10.25 20.1195 10.25C20.1195 10.25 20.1195 10.25 20.1195 10.25C20.1195 10.25 20.1195 10.25 20.1195 10.25C20.1195 10.25 20.1195 10.25 20.1195 10.25C20.1195 10.25 20.1195 10.25 20.1195 10.25C20.1195 10.25 20.1195 10.25 20.1195 10.25C20.1195 10.25 20.1195 10.25 20.1195 10.25C20.1195 10.25 20.1195 10.25 20.1195 10.25C20.1195 10.25 20.1195 10.25 20.1195 10.25C20.1195 10.25 20.1195 10.25 20.1195 10.25C20.1195 10.25 20.1195 10.25 20.1195 10.25C20.1195 10.25 20.1195 10.25 20.1195 10.25C20.1195 10.25 20.1195 10.25 20.1195 10.25C20.1195 10.25 20.1195 10.25 20.1195 10.25C20.1195 10.25 20.1195 10.25 20.1194 10.25C20.1194 10.25 20.1194 10.25 20.1194 10.25C20.1194 10.25 20.1194 10.25 20.1194 10.25C20.1194 10.25 20.1194 10.25 20.1194 10.25C20.1194 10.25 20.1194 10.25 20.1194 10.25C20.1194 10.25 20.1194 10.25 20.1194 10.25C20.1194 10.25 20.1194 10.25 20.1194 10.25C20.1194 10.25 20.1194 10.25 20.1194 10.25C20.1194 10.25 20.1194 10.25 20.1194 10.25C20.1194 10.25 20.1194 10.25 20.1194 10.25C20.1194 10.25 20.1194 10.25 20.1194 10.25C20.1194 10.25 20.1194 10.25 20.1194 10.25C20.1194 10.25 20.1194 10.25 20.1194 10.25C20.1194 10.25 20.1194 10.25 20.1194 10.25C20.1194 10.25 20.1194 10.25 20.1194 10.25C20.1194 10.25 20.1194 10.25 20.1194 10.25C20.1194 10.25 20.1194 10.25 20.1194 10.25C20.1194 10.25 20.1194 10.25 20.1194 10.25C20.1194 10.25 20.1194 10.25 20.1194 10.25C20.1194 10.25 20.1194 10.25 20.1194 10.25C20.1194 10.25 20.1194 10.25 20.1194 10.25C20.1194 10.25 20.1194 10.25 20.1194 10.25C20.1194 10.25 20.1194 10.25 20.1194 10.25C20.1194 10.25 20.1194 10.25 20.1193 10.25C20.1193 10.25 20.1193 10.25 20.1193 10.25C20.1193 10.25 20.1193 10.25 20.1193 10.25C20.1193 10.25 20.1193 10.25 20.1193 10.25C20.1193 10.25 20.1193 10.25 20.1193 10.25C20.1193 10.25 20.1193 10.25 20.1193 10.25C20.1193 10.25 20.1193 10.25 20.1193 10.25C20.1193 10.25 20.1193 10.25 20.1193 10.25C20.1193 10.25 20.1193 10.25 20.1193 10.25C20.1193 10.25 20.1193 10.25 20.1193 10.25C20.1193 10.25 20.1193 10.25 20.1193 10.25C20.1193 10.25 20.1193 10.25 20.1193 10.25C20.1193 10.25 20.1193 10.25 20.1193 10.25C20.1193 10.25 20.1193 10.25 20.1193 10.25C20.1193 10.25 20.1193 10.25 20.1193 10.25C20.1193 10.25 20.1193 10.25 20.1193 10.25C20.1193 10.25 20.1193 10.25 20.1193 10.25C20.1193 10.25 20.1193 10.25 20.1193 10.25C20.1193 10.25 20.1193 10.25 20.1193 10.25C20.1193 10.25 20.1193 10.25 20.1193 10.25C20.1193 10.25 20.1193 10.25 20.1193 10.25C20.1193 10.25 20.1193 10.25 20.1193 10.25C20.1193 10.25 20.1193 10.25 20.1193 10.25C20.1193 10.25 20.1193 10.25 20.1193 10.25C20.1193 10.25 20.1193 10.25 20.1193 10.25C20.1193 10.25 20.1193 10.25 20.1192 10.25C20.1192 10.25 20.1192 10.25 20.1192 10.25C20.1192 10.25 20.1192 10.25 20.1192 10.25C20.1192 10.25 20.1192 10.25 20.1192 10.25C20.1192 10.25 20.1192 10.25 20.1192 10.25C20.1192 10.25 20.1192 10.25 20.1192 10.25C20.1192 10.25 20.1192 10.25 20.1192 10.25C20.1192 10.25 20.1192 10.25 20.1192 10.25C20.1192 10.25 20.1192 10.25 20.1192 10.25C20.1192 10.25 20.1192 10.25 20.1192 10.25C20.1192 10.25 20.1192 10.25 20.1192 10.25C20.1192 10.25 20.1192 10.25 20.1192 10.25C20.1192 10.25 20.1192 10.25 20.1192 10.25C20.1192 10.25 20.1192 10.25 20.1192 10.25C20.1192 10.25 20.1192 10.25 20.1192 10.25C20.1192 10.25 20.1192 10.25 20.1192 10.25C20.1192 10.25 20.1192 10.25 20.1192 10.25C20.1192 10.25 20.1192 10.25 20.1192 10.25C20.1192 10.25 20.1192 10.25 20.1192 10.25C20.1192 10.25 20.1192 10.25 20.1192 10.25C20.1192 10.25 20.1192 10.25 20.1192 10.25C20.1192 10.25 20.1192 10.25 20.1192 10.25C20.1192 10.25 20.1192 10.25 20.1192 10.25C20.1192 10.25 20.1192 10.25 20.1192 10.25C20.1192 10.25 20.1192 10.25 20.1192 10.25C20.1192 10.25 20.1192 10.25 20.1192 10.25C20.1192 10.25 20.1192 10.25 20.1192 10.25C20.1192 10.25 20.1192 10.25 20.1192 10.25C20.1192 10.25 20.1192 10.25 20.1191 10.25C20.1191 10.25 20.1191 10.25 20.1191 10.25C20.1191 10.25 20.1191 10.25 20.1191 10.25C20.1191 10.25 20.1191 10.25 20.1191 10.25C20.1191 10.25 20.1191 10.25 20.1191 10.25C20.1191 10.25 20.1191 10.25 20.1191 10.25C20.1191 10.25 20.1191 10.25 20.1191 10.25C20.1191 10.25 20.1191 10.25 20.1191 10.25C20.1191 10.25 20.1191 10.25 20.1191 10.25C20.1191 10.25 20.1191 10.25 20.1191 10.25C20.1191 10.25 20.1191 10.25 20.1191 10.25C20.1191 10.25 20.1191 10.25 20.1191 10.25C20.1191 10.25 20.1191 10.25 20.1191 10.25C20.1191 10.25 20.1191 10.25 20.1191 10.25C20.1191 10.25 20.1191 10.25 20.1191 10.25C20.1191 10.25 20.1191 10.25 20.1191 10.25C20.1191 10.25 20.1191 10.25 20.1191 10.25C20.1191 10.25 20.1191 10.25 20.1191 10.25C20.1191 10.25 20.1191 10.25 20.1191 10.25C20.1191 10.25 20.1191 10.25 20.1191 10.25C20.1191 10.25 20.1191 10.25 20.1191 10.25C20.1191 10.25 20.1191 10.25 20.1191 10.25C20.1191 10.25 20.1191 10.25 20.1191 10.25C20.1191 10.25 20.1191 10.25 20.1191 10.25C20.1191 10.25 20.1191 10.25 20.1191 10.25C20.1191 10.25 20.1191 10.25 20.1191 10.25C20.1191 10.25 20.1191 10.25 20.1191 10.25C20.1191 10.25 20.1191 10.25 20.1191 10.25C20.1191 10.25 20.1191 10.25 20.1191 10.25C20.1191 10.25 20.1191 10.25 20.1191 10.25C20.1191 10.25 20.1191 10.25 20.1191 10.25C20.1191 10.25 20.1191 10.25 20.1191 10.25C20.1191 10.25 20.1191 10.25 20.1191 10.25C20.1191 10.25 20.1191 10.25 20.1191 10.25C20.1191 10.25 20.119 10.25 20.119 10.25C20.119 10.25 20.119 10.25 20.119 10.25C20.119 10.25 20.119 10.25 20.119 10.25C20.119 10.25 20.119 10.25 20.119 10.25C20.119 10.25 20.119 10.25 20.119 10.25C20.119 10.25 20.119 10.25 20.119 10.25C20.119 10.25 20.119 10.25 20.119 10.25C20.119 10.25 20.119 10.25 20.119 10.25C20.119 10.25 20.119 10.25 20.119 10.25C20.119 10.25 20.119 10.25 20.119 10.25C20.119 10.25 20.119 10.25 20.119 10.25C20.119 10.25 20.119 10.25 20.119 10.25C20.119 10.25 20.119 10.25 20.119 10.25C20.119 10.25 20.119 10.25 20.119 10.25C20.119 10.25 20.119 10.25 20.119 10.25C20.119 10.25 20.119 10.25 20.119 10.25C20.119 10.25 20.119 10.25 20.119 10.25C20.119 10.25 20.119 10.25 20.119 10.25C20.119 10.25 20.119 10.25 20.119 10.25C20.119 10.25 20.119 10.25 20.119 10.25C20.119 10.25 20.119 10.25 20.119 10.25C20.119 10.25 20.119 10.25 20.119 10.25C20.119 10.25 20.119 10.25 20.119 10.25C20.119 10.25 20.119 10.25 20.119 10.25C20.119 10.25 20.119 10.25 20.119 10.25C20.119 10.25 20.119 10.25 20.119 10.25C20.119 10.25 20.119 10.25 20.119 10.25C20.119 10.25 20.119 10.25 20.119 10.25C20.119 10.25 20.119 10.25 20.119 10.25C20.119 10.25 20.119 10.25 20.119 10.25C20.119 10.25 20.119 10.25 20.119 10.25C20.119 10.25 20.119 10.25 20.119 10.25C20.119 10.25 20.119 10.25 20.119 10.25C20.119 10.25 20.119 10.25 20.119 10.25C20.119 10.25 20.119 10.25 20.119 10.25C20.119 10.25 20.119 10.25 20.119 10.25C20.119 10.25 20.119 10.25 20.119 10.25C20.119 10.25 20.119 10.25 20.119 10.25C20.119 10.25 20.119 10.25 20.119 10.25C20.119 10.25 20.119 10.25 20.119 10.25C20.119 10.25 20.119 10.25 20.119 10.25C20.119 10.25 20.119 10.25 20.119 10.25C20.119 10.25 20.119 10.25 20.119 10.25C20.119 10.25 20.119 10.25 20.119 10.25C20.119 10.25 20.119 10.25 20.119 10.25C20.119 10.25 20.119 10.25 20.119 10.25C20.119 10.25 20.119 10.25 20.1189 10.25C20.1189 10.25 20.1189 10.25 20.1189 10.25C20.1189 10.25 20.1189 10.25 20.1189 10.25C20.1189 10.25 20.1189 10.25 20.1189 10.25C20.1189 10.25 20.1189 10.25 20.1189 10.25C20.1189 10.25 20.1189 10.25 20.1189 10.25C20.1189 10.25 20.1189 10.25 20.1189 10.25C20.1189 10.25 20.1189 10.25 20.1189 10.25C20.1189 10.25 20.1189 10.25 20.1189 10.25C20.1189 10.25 20.1189 10.25 20.1189 10.25C20.1189 10.25 20.1189 10.25 20.1189 10.25C20.1189 10.25 20.1189 10.25 20.1189 10.25C20.1189 10.25 20.1189 10.25 20.1189 10.25C20.1189 10.25 20.1189 10.25 20.1189 10.25C20.1189 10.25 20.1189 10.25 20.1189 10.25C20.1189 10.25 20.1189 10.25 20.1189 10.25C20.1189 10.25 20.1189 10.25 20.1189 10.25C20.1189 10.25 20.1189 10.25 20.1189 10.25C20.1189 10.25 20.1189 10.25 20.1189 10.25C20.1189 10.25 20.1189 10.25 20.1189 10.25C20.1189 10.25 20.1189 10.25 20.1189 10.25C20.1189 10.25 20.1189 10.25 20.1189 10.25C20.1189 10.25 20.1189 10.25 20.1189 10.25C20.1189 10.25 20.1189 10.25 20.1189 10.25C20.1189 10.25 20.1189 10.25 20.1189 10.25C20.1189 10.25 20.1189 10.25 20.1189 10.25C20.1189 10.25 20.1189 10.25 20.1189 10.25C20.1189 10.25 20.1189 10.25 20.1189 10.25C20.1189 10.25 20.1189 10.25 20.1189 10.25C20.1189 10.25 20.1189 10.25 20.1189 10.25C20.1189 10.25 20.1189 10.25 20.1189 10.25C20.1189 10.25 20.1189 10.25 20.1189 10.25C20.1189 10.25 20.1189 10.25 20.1189 10.25C20.1189 10.25 20.1189 10.25 20.1189 10.25C20.1189 10.25 20.1189 10.25 20.1189 10.25C20.1189 10.25 20.1189 10.25 20.1189 10.25C20.1189 10.25 20.1189 10.25 20.1189 10.25C20.1189 10.25 20.1189 10.25 20.1189 10.25C20.1189 10.25 20.1189 10.25 20.1189 10.25C20.1189 10.25 20.1189 10.25 20.1189 10.25C20.1189 10.25 20.1189 10.25 20.1189 10.25C20.1189 10.25 20.1189 10.25 20.1189 10.25C20.1189 10.25 20.1189 10.25 20.1189 10.25C20.1189 10.25 20.1189 10.25 20.1189 10.25C20.1189 10.25 20.1189 10.25 20.1189 10.25C20.1189 10.25 20.1189 10.25 20.1189 10.25C20.1189 10.25 20.1189 10.25 20.1189 10.25C20.1189 10.25 20.1189 10.25 20.1189 10.25C20.1189 10.25 20.1189 10.25 20.1189 10.25C20.1189 10.25 20.1189 10.25 20.1189 10.25C20.1189 10.25 20.1189 10.25 20.1189 10.25C20.1189 10.25 20.1189 10.25 20.1189 10.25C20.1189 10.25 20.1189 10.25 20.1189 10.25C20.1189 10.25 20.1189 10.25 20.1189 10.25C20.1189 10.25 20.1189 10.25 20.1189 10.25C20.1189 10.25 20.1189 10.25 20.1189 10.25C20.1189 10.25 20.1189 10.25 20.1189 10.25C20.1189 10.25 20.1189 10.25 20.1189 10.25C20.1189 10.25 20.1189 10.25 20.1189 10.25C20.1189 10.25 20.1189 10.25 20.1189 10.25C20.1189 10.25 20.1189 10.25 20.1189 10.25C20.1189 10.25 20.1189 10.25 20.1189 10.25C20.1189 10.25 20.1189 10.25 20.1189 10.25C20.1189 10.25 20.1189 10.25 20.1189 10.25C20.1189 10.25 20.1189 10.25 20.1189 12.25ZM20.1211 14.25C20.0799 14.25 20.0318 14.2417 19.983 14.2215C19.9341 14.2012 19.8931 14.1726 19.8626 14.1419L22.6955 11.3181C22.0098 10.6301 21.0885 10.25 20.1211 10.25V14.25ZM19.8641 14.1435L20.8541 15.1345L23.684 12.3075L22.694 11.3165L19.8641 14.1435ZM20.8571 15.1375C20.8266 15.1071 20.7982 15.0664 20.7781 15.0178C20.7581 14.9694 20.75 14.9221 20.75 14.882H24.75C24.75 13.9148 24.3708 12.9921 23.681 12.3045L20.8571 15.1375ZM18.6045 12.3801L17.9714 13.0161L20.8064 15.8379L21.4395 15.2019L18.6045 12.3801ZM17.9748 15.8413L19.1588 17.0253L21.9872 14.1967L20.8031 13.0127L17.9748 15.8413ZM21.9839 17.0285L22.6199 16.3955L19.7981 13.5605L19.1621 14.1934L21.9839 17.0285ZM22.6019 16.4132C23.1409 15.8901 23.25 15.2598 23.25 14.88H19.25C19.25 14.5542 19.3451 13.9999 19.816 13.5428L22.6019 16.4132ZM23.25 14.88C23.25 14.4934 23.1379 13.8815 22.6232 13.3668L19.7948 16.1952C19.3481 15.7485 19.25 15.2126 19.25 14.88H23.25ZM22.6239 13.3675L21.6339 12.3765L18.8041 15.2035L19.794 16.1945L22.6239 13.3675ZM21.6542 12.397C21.1315 11.8585 20.5016 11.749 20.1211 11.749V15.749C19.7946 15.749 19.2405 15.6535 18.7838 15.1829L21.6542 12.397ZM20.1211 11.749C19.6745 11.749 19.1032 11.8952 18.6284 12.3564L21.4155 15.2256C21.0108 15.6188 20.5137 15.749 20.1211 15.749V11.749ZM20.9243 15.2548L19.7453 14.0758L16.9168 16.9042L18.0958 18.0832L20.9243 15.2548ZM16.9135 14.0791L13.3325 17.6771L16.1675 20.4989L19.7486 16.9009L16.9135 14.0791ZM12.75 19.088V20.251H16.75V19.088H12.75ZM14.75 22.251H15.9131V18.251H14.75V22.251ZM17.3244 21.6682L20.9213 18.0862L18.0987 15.2519L14.5018 18.8339L17.3244 21.6682Z" fill="black" mask="url(#path-1-inside-1_9_23479)"/>
</svg>
