<svg width="24" height="24" viewBox="0 0 24 24" fill="none" xmlns="http://www.w3.org/2000/svg">
<mask id="path-1-inside-1_9_23221" fill="white">
<path d="M18 21.75H13.75V16.5C13.75 15.535 12.965 14.75 12 14.75C11.035 14.75 10.25 15.535 10.25 16.5V21.75H6C3.582 21.75 2.25 20.418 2.25 18V11.65C2.25 9.52704 2.83599 8.93401 3.79199 8.14101L9.91199 3.01003C11.121 1.99503 12.879 1.99503 14.088 3.01003L20.208 8.14101C21.164 8.93401 21.75 9.52804 21.75 11.65V18C21.75 20.418 20.418 21.75 18 21.75ZM15.25 20.25H18C19.577 20.25 20.25 19.577 20.25 18V11.65C20.25 10.124 19.998 9.91506 19.251 9.29506L13.125 4.15908C12.473 3.61308 11.527 3.61308 10.875 4.15908L4.74902 9.29506C4.00202 9.91506 3.75 10.124 3.75 11.65V18C3.75 19.577 4.423 20.25 6 20.25H8.75V16.5C8.75 14.708 10.208 13.25 12 13.25C13.792 13.25 15.25 14.708 15.25 16.5V20.25Z"/>
</mask>
<path d="M18 21.75H13.75V16.5C13.75 15.535 12.965 14.75 12 14.75C11.035 14.75 10.25 15.535 10.25 16.5V21.75H6C3.582 21.75 2.25 20.418 2.25 18V11.65C2.25 9.52704 2.83599 8.93401 3.79199 8.14101L9.91199 3.01003C11.121 1.99503 12.879 1.99503 14.088 3.01003L20.208 8.14101C21.164 8.93401 21.75 9.52804 21.75 11.65V18C21.75 20.418 20.418 21.75 18 21.75ZM15.25 20.25H18C19.577 20.25 20.25 19.577 20.25 18V11.65C20.25 10.124 19.998 9.91506 19.251 9.29506L13.125 4.15908C12.473 3.61308 11.527 3.61308 10.875 4.15908L4.74902 9.29506C4.00202 9.91506 3.75 10.124 3.75 11.65V18C3.75 19.577 4.423 20.25 6 20.25H8.75V16.5C8.75 14.708 10.208 13.25 12 13.25C13.792 13.25 15.25 14.708 15.25 16.5V20.25Z" fill="black"/>
<path d="M13.75 21.75H11.75V23.75H13.75V21.75ZM10.25 21.75V23.75H12.25V21.75H10.25ZM3.79199 8.14101L5.06889 9.68037L5.07693 9.67363L3.79199 8.14101ZM9.91199 3.01003L11.1969 4.54265L11.198 4.54179L9.91199 3.01003ZM14.088 3.01003L12.802 4.54179L12.8031 4.54265L14.088 3.01003ZM20.208 8.14101L18.923 9.67365L18.9311 9.68035L20.208 8.14101ZM21.75 18L19.75 18L21.75 18ZM15.25 20.25H13.25V22.25H15.25V20.25ZM19.251 9.29506L17.966 10.8277L17.9736 10.834L19.251 9.29506ZM13.125 4.15908L14.4099 2.62646L14.4091 2.62572L13.125 4.15908ZM10.875 4.15908L9.59093 2.62572L9.59006 2.62646L10.875 4.15908ZM4.74902 9.29506L6.02637 10.8341L6.03396 10.8277L4.74902 9.29506ZM8.75 20.25V22.25H10.75V20.25H8.75ZM18 19.75H13.75V23.75H18V19.75ZM15.75 21.75V16.5H11.75V21.75H15.75ZM15.75 16.5C15.75 14.4304 14.0696 12.75 12 12.75V16.75C11.8604 16.75 11.75 16.6396 11.75 16.5H15.75ZM12 12.75C9.93043 12.75 8.25 14.4304 8.25 16.5H12.25C12.25 16.6396 12.1396 16.75 12 16.75V12.75ZM8.25 16.5V21.75H12.25V16.5H8.25ZM10.25 19.75H6V23.75H10.25V19.75ZM6 19.75C5.1485 19.75 4.78588 19.521 4.63246 19.3676C4.47905 19.2141 4.25 18.8515 4.25 18H0.25C0.25 19.5665 0.686954 21.0789 1.80404 22.196C2.92112 23.3131 4.4335 23.75 6 23.75V19.75ZM4.25 18V11.65H0.25V18H4.25ZM4.25 11.65C4.25 10.7549 4.37704 10.4349 4.43783 10.3177C4.50112 10.1957 4.59927 10.0699 5.06887 9.68035L2.51511 6.60167C2.02872 7.00513 1.35587 7.57229 0.887162 8.47581C0.415957 9.38414 0.25 10.4222 0.25 11.65H4.25ZM5.07693 9.67363L11.1969 4.54265L8.62704 1.47741L2.50705 6.60839L5.07693 9.67363ZM11.198 4.54179C11.6633 4.15111 12.3367 4.15111 12.802 4.54179L15.374 1.47827C13.4213 -0.161051 10.5787 -0.161051 8.62602 1.47827L11.198 4.54179ZM12.8031 4.54265L18.9231 9.67363L21.493 6.60839L15.373 1.47741L12.8031 4.54265ZM18.9311 9.68035C19.4003 10.0695 19.4987 10.1957 19.5621 10.3179C19.623 10.4354 19.75 10.7556 19.75 11.65H23.75C23.75 10.4225 23.584 9.38463 23.1129 8.47636C22.6443 7.57284 21.9718 7.00553 21.4849 6.60167L18.9311 9.68035ZM19.75 11.65V18H23.75V11.65H19.75ZM19.75 18C19.75 18.8515 19.521 19.2141 19.3675 19.3676C19.2141 19.521 18.8515 19.75 18 19.75V23.75C19.5665 23.75 21.0789 23.3131 22.196 22.196C23.313 21.0789 23.75 19.5665 23.75 18L19.75 18ZM15.25 22.25H18V18.25H15.25V22.25ZM18 22.25C19.0175 22.25 20.2204 22.0408 21.1306 21.1306C22.0407 20.2205 22.25 19.0175 22.25 18H18.25C18.25 18.2621 18.2208 18.3892 18.2088 18.4282C18.2011 18.4531 18.2189 18.3854 18.3022 18.3022C18.3854 18.2189 18.4531 18.2012 18.4282 18.2088C18.3892 18.2208 18.262 18.25 18 18.25V22.25ZM22.25 18V11.65H18.25V18H22.25ZM22.25 11.65C22.25 10.8516 22.1995 10.017 21.8281 9.25577C21.4484 8.47771 20.8248 8.00222 20.5283 7.75609L17.9736 10.834C18.1827 11.0075 18.2534 11.0689 18.2974 11.1135C18.3155 11.1319 18.2726 11.0907 18.2332 11.0098C18.1977 10.9372 18.2055 10.9146 18.2196 11.012C18.2353 11.1206 18.25 11.3125 18.25 11.65H22.25ZM20.5359 7.76244L14.4099 2.62646L11.8401 5.6917L17.966 10.8277L20.5359 7.76244ZM14.4091 2.62572C13.0141 1.45753 10.9859 1.45753 9.59093 2.62572L12.1591 5.69243C12.0681 5.76863 11.9319 5.76863 11.8409 5.69243L14.4091 2.62572ZM9.59006 2.62646L3.46408 7.76244L6.03396 10.8277L12.1599 5.6917L9.59006 2.62646ZM3.4717 7.75609C3.17515 8.00222 2.55158 8.47771 2.17194 9.25577C1.80049 10.017 1.75 10.8516 1.75 11.65H5.75C5.75 11.3125 5.7647 11.1206 5.78042 11.012C5.79452 10.9146 5.80227 10.9372 5.76683 11.0098C5.72737 11.0907 5.68452 11.1319 5.70259 11.1135C5.74658 11.0689 5.81734 11.0075 6.02635 10.834L3.4717 7.75609ZM1.75 11.65V18H5.75V11.65H1.75ZM1.75 18C1.75 19.0175 1.95926 20.2205 2.86941 21.1306C3.77956 22.0408 4.98249 22.25 6 22.25V18.25C5.73795 18.25 5.61082 18.2208 5.57184 18.2088C5.54694 18.2012 5.61461 18.2189 5.69784 18.3022C5.78107 18.3854 5.79886 18.4531 5.79119 18.4282C5.77919 18.3892 5.75 18.2621 5.75 18H1.75ZM6 22.25H8.75V18.25H6V22.25ZM10.75 20.25V16.5H6.75V20.25H10.75ZM10.75 16.5C10.75 15.8126 11.3126 15.25 12 15.25V11.25C9.10343 11.25 6.75 13.6034 6.75 16.5H10.75ZM12 15.25C12.6874 15.25 13.25 15.8126 13.25 16.5H17.25C17.25 13.6034 14.8966 11.25 12 11.25V15.25ZM13.25 16.5V20.25H17.25V16.5H13.25Z" fill="black" mask="url(#path-1-inside-1_9_23221)"/>
</svg>
