<svg width="24" height="24" viewBox="0 0 24 24" fill="none" xmlns="http://www.w3.org/2000/svg">
<mask id="path-1-inside-1_9_23598" fill="white">
<path d="M9.00598 12.05C7.68298 12.05 6.60699 10.973 6.60699 9.65002C6.60699 8.32702 7.68298 7.25 9.00598 7.25C10.329 7.25 11.406 8.32702 11.406 9.65002C11.406 10.973 10.329 12.05 9.00598 12.05ZM9.00598 8.75C8.50998 8.75 8.10699 9.15402 8.10699 9.65002C8.10699 10.146 8.50998 10.55 9.00598 10.55C9.50198 10.55 9.90601 10.146 9.90601 9.65002C9.90601 9.15402 9.50198 8.75 9.00598 8.75ZM12 16.75C11.586 16.75 11.25 16.414 11.25 16V15.697C11.25 14.977 10.753 14.25 9.64203 14.25H8.35901C7.24801 14.25 6.75098 14.977 6.75098 15.697V16C6.75098 16.414 6.41498 16.75 6.00098 16.75C5.58698 16.75 5.25098 16.414 5.25098 16V15.697C5.25098 14.233 6.31801 12.75 8.35901 12.75H9.64203C11.683 12.75 12.75 14.232 12.75 15.697V16C12.75 16.414 12.414 16.75 12 16.75ZM18 20.25H6C3.582 20.25 2.25 18.918 2.25 16.5V7.5C2.25 5.082 3.582 3.75 6 3.75H18C20.418 3.75 21.75 5.082 21.75 7.5V16.5C21.75 18.918 20.418 20.25 18 20.25ZM6 5.25C4.423 5.25 3.75 5.923 3.75 7.5V16.5C3.75 18.077 4.423 18.75 6 18.75H18C19.577 18.75 20.25 18.077 20.25 16.5V7.5C20.25 5.923 19.577 5.25 18 5.25H6ZM18.75 9.93799C18.75 9.52399 18.414 9.18799 18 9.18799H14C13.586 9.18799 13.25 9.52399 13.25 9.93799C13.25 10.352 13.586 10.688 14 10.688H18C18.414 10.688 18.75 10.352 18.75 9.93799ZM18.7 14C18.7 13.586 18.364 13.25 17.95 13.25H14.95C14.536 13.25 14.2 13.586 14.2 14C14.2 14.414 14.536 14.75 14.95 14.75H17.95C18.364 14.75 18.7 14.414 18.7 14Z"/>
</mask>
<path d="M9.00598 12.05C7.68298 12.05 6.60699 10.973 6.60699 9.65002C6.60699 8.32702 7.68298 7.25 9.00598 7.25C10.329 7.25 11.406 8.32702 11.406 9.65002C11.406 10.973 10.329 12.05 9.00598 12.05ZM9.00598 8.75C8.50998 8.75 8.10699 9.15402 8.10699 9.65002C8.10699 10.146 8.50998 10.55 9.00598 10.55C9.50198 10.55 9.90601 10.146 9.90601 9.65002C9.90601 9.15402 9.50198 8.75 9.00598 8.75ZM12 16.75C11.586 16.75 11.25 16.414 11.25 16V15.697C11.25 14.977 10.753 14.25 9.64203 14.25H8.35901C7.24801 14.25 6.75098 14.977 6.75098 15.697V16C6.75098 16.414 6.41498 16.75 6.00098 16.75C5.58698 16.75 5.25098 16.414 5.25098 16V15.697C5.25098 14.233 6.31801 12.75 8.35901 12.75H9.64203C11.683 12.75 12.75 14.232 12.75 15.697V16C12.75 16.414 12.414 16.75 12 16.75ZM18 20.25H6C3.582 20.25 2.25 18.918 2.25 16.5V7.5C2.25 5.082 3.582 3.75 6 3.75H18C20.418 3.75 21.75 5.082 21.75 7.5V16.5C21.75 18.918 20.418 20.25 18 20.25ZM6 5.25C4.423 5.25 3.75 5.923 3.75 7.5V16.5C3.75 18.077 4.423 18.75 6 18.75H18C19.577 18.75 20.25 18.077 20.25 16.5V7.5C20.25 5.923 19.577 5.25 18 5.25H6ZM18.75 9.93799C18.75 9.52399 18.414 9.18799 18 9.18799H14C13.586 9.18799 13.25 9.52399 13.25 9.93799C13.25 10.352 13.586 10.688 14 10.688H18C18.414 10.688 18.75 10.352 18.75 9.93799ZM18.7 14C18.7 13.586 18.364 13.25 17.95 13.25H14.95C14.536 13.25 14.2 13.586 14.2 14C14.2 14.414 14.536 14.75 14.95 14.75H17.95C18.364 14.75 18.7 14.414 18.7 14Z" fill="black"/>
<path d="M9.00598 10.05C8.78868 10.05 8.60699 9.86958 8.60699 9.65002H4.60699C4.60699 12.0765 6.57729 14.05 9.00598 14.05V10.05ZM8.60699 9.65002C8.60699 9.43047 8.78868 9.25 9.00598 9.25V5.25C6.57729 5.25 4.60699 7.22358 4.60699 9.65002H8.60699ZM9.00598 9.25C9.22441 9.25 9.40601 9.43159 9.40601 9.65002H13.406C13.406 7.22245 11.4336 5.25 9.00598 5.25V9.25ZM9.40601 9.65002C9.40601 9.86845 9.22441 10.05 9.00598 10.05V14.05C11.4336 14.05 13.406 12.0776 13.406 9.65002H9.40601ZM9.00598 6.75C7.40241 6.75 6.10699 8.05246 6.10699 9.65002H10.107C10.107 10.2556 9.61755 10.75 9.00598 10.75V6.75ZM6.10699 9.65002C6.10699 11.2476 7.40241 12.55 9.00598 12.55V8.55005C9.61755 8.55005 10.107 9.04446 10.107 9.65002H6.10699ZM9.00598 12.55C10.6066 12.55 11.906 11.2506 11.906 9.65002H7.90601C7.90601 9.04145 8.39741 8.55005 9.00598 8.55005V12.55ZM11.906 9.65002C11.906 8.04945 10.6066 6.75 9.00598 6.75V10.75C8.39741 10.75 7.90601 10.2586 7.90601 9.65002H11.906ZM12 14.75C12.6906 14.75 13.25 15.3094 13.25 16H9.25C9.25 17.5186 10.4814 18.75 12 18.75V14.75ZM13.25 16V15.697H9.25V16H13.25ZM13.25 15.697C13.25 14.8879 12.9698 14.0046 12.2995 13.3123C11.6058 12.5959 10.6566 12.25 9.64203 12.25V16.25C9.70073 16.25 9.68912 16.2592 9.63285 16.2372C9.57393 16.2141 9.49749 16.1688 9.42578 16.0947C9.28172 15.9459 9.25 15.7862 9.25 15.697H13.25ZM9.64203 12.25H8.35901V16.25H9.64203V12.25ZM8.35901 12.25C7.34443 12.25 6.39522 12.5959 5.70154 13.3123C5.03124 14.0045 4.75098 14.8878 4.75098 15.697H8.75098C8.75098 15.7863 8.71923 15.946 8.57519 16.0947C8.50349 16.1688 8.42706 16.2142 8.36816 16.2372C8.31191 16.2592 8.30031 16.25 8.35901 16.25V12.25ZM4.75098 15.697V16H8.75098V15.697H4.75098ZM4.75098 16C4.75098 15.3094 5.31041 14.75 6.00098 14.75V18.75C7.51955 18.75 8.75098 17.5186 8.75098 16H4.75098ZM6.00098 14.75C6.69155 14.75 7.25098 15.3094 7.25098 16H3.25098C3.25098 17.5186 4.48241 18.75 6.00098 18.75V14.75ZM7.25098 16V15.697H3.25098V16H7.25098ZM7.25098 15.697C7.25098 15.4383 7.34729 15.2031 7.4951 15.0462C7.61683 14.917 7.8562 14.75 8.35901 14.75V10.75C5.1034 10.75 3.25098 13.2418 3.25098 15.697H7.25098ZM8.35901 14.75H9.64203V10.75H8.35901V14.75ZM9.64203 14.75C10.1453 14.75 10.3845 14.9171 10.506 15.046C10.6535 15.2025 10.75 15.4376 10.75 15.697H14.75C14.75 13.2404 12.8973 10.75 9.64203 10.75V14.75ZM10.75 15.697V16H14.75V15.697H10.75ZM10.75 16C10.75 15.3094 11.3094 14.75 12 14.75V18.75C13.5186 18.75 14.75 17.5186 14.75 16H10.75ZM18 18.25H6V22.25H18V18.25ZM6 18.25C5.1485 18.25 4.78588 18.021 4.63246 17.8675C4.47905 17.7141 4.25 17.3515 4.25 16.5H0.25C0.25 18.0665 0.686954 19.5789 1.80404 20.696C2.92112 21.813 4.4335 22.25 6 22.25V18.25ZM4.25 16.5V7.5H0.25V16.5H4.25ZM4.25 7.5C4.25 6.6485 4.47905 6.28588 4.63246 6.13246C4.78588 5.97905 5.1485 5.75 6 5.75V1.75C4.4335 1.75 2.92112 2.18695 1.80404 3.30404C0.686954 4.42112 0.25 5.9335 0.25 7.5H4.25ZM6 5.75H18V1.75H6V5.75ZM18 5.75C18.8515 5.75 19.2141 5.97905 19.3675 6.13246C19.521 6.28588 19.75 6.6485 19.75 7.5H23.75C23.75 5.9335 23.313 4.42112 22.196 3.30404C21.0789 2.18695 19.5665 1.75 18 1.75V5.75ZM19.75 7.5V16.5H23.75V7.5H19.75ZM19.75 16.5C19.75 17.3515 19.521 17.7141 19.3675 17.8675C19.2141 18.021 18.8515 18.25 18 18.25V22.25C19.5665 22.25 21.0789 21.813 22.196 20.696C23.313 19.5789 23.75 18.0665 23.75 16.5H19.75ZM6 3.25C4.98249 3.25 3.77956 3.45926 2.86941 4.36941C1.95926 5.27956 1.75 6.48249 1.75 7.5H5.75C5.75 7.23795 5.77919 7.11082 5.79119 7.07184C5.79886 7.04694 5.78107 7.11461 5.69784 7.19784C5.61461 7.28107 5.54694 7.29886 5.57184 7.29119C5.61082 7.27919 5.73795 7.25 6 7.25V3.25ZM1.75 7.5V16.5H5.75V7.5H1.75ZM1.75 16.5C1.75 17.5175 1.95926 18.7204 2.86941 19.6306C3.77956 20.5407 4.98249 20.75 6 20.75V16.75C5.73795 16.75 5.61082 16.7208 5.57184 16.7088C5.54694 16.7011 5.61461 16.7189 5.69784 16.8022C5.78107 16.8854 5.79886 16.9531 5.79119 16.9282C5.77919 16.8892 5.75 16.762 5.75 16.5H1.75ZM6 20.75H18V16.75H6V20.75ZM18 20.75C19.0175 20.75 20.2204 20.5407 21.1306 19.6306C22.0407 18.7204 22.25 17.5175 22.25 16.5H18.25C18.25 16.762 18.2208 16.8892 18.2088 16.9282C18.2011 16.9531 18.2189 16.8854 18.3022 16.8022C18.3854 16.7189 18.4531 16.7011 18.4282 16.7088C18.3892 16.7208 18.262 16.75 18 16.75V20.75ZM22.25 16.5V7.5H18.25V16.5H22.25ZM22.25 7.5C22.25 6.48249 22.0407 5.27956 21.1306 4.36941C20.2204 3.45926 19.0175 3.25 18 3.25V7.25C18.262 7.25 18.3892 7.27919 18.4282 7.29119C18.4531 7.29886 18.3854 7.28107 18.3022 7.19784C18.2189 7.11461 18.2011 7.04694 18.2088 7.07184C18.2208 7.11082 18.25 7.23795 18.25 7.5H22.25ZM18 3.25H6V7.25H18V3.25ZM20.75 9.93799C20.75 8.41942 19.5186 7.18799 18 7.18799V11.188C17.3094 11.188 16.75 10.6286 16.75 9.93799H20.75ZM18 7.18799H14V11.188H18V7.18799ZM14 7.18799C12.4814 7.18799 11.25 8.41942 11.25 9.93799H15.25C15.25 10.6286 14.6906 11.188 14 11.188V7.18799ZM11.25 9.93799C11.25 11.4566 12.4814 12.688 14 12.688V8.68799C14.6906 8.68799 15.25 9.24742 15.25 9.93799H11.25ZM14 12.688H18V8.68799H14V12.688ZM18 12.688C19.5186 12.688 20.75 11.4566 20.75 9.93799H16.75C16.75 9.24742 17.3094 8.68799 18 8.68799V12.688ZM20.7 14C20.7 12.4814 19.4686 11.25 17.95 11.25V15.25C17.2594 15.25 16.7 14.6906 16.7 14H20.7ZM17.95 11.25H14.95V15.25H17.95V11.25ZM14.95 11.25C13.4314 11.25 12.2 12.4814 12.2 14H16.2C16.2 14.6906 15.6406 15.25 14.95 15.25V11.25ZM12.2 14C12.2 15.5186 13.4314 16.75 14.95 16.75V12.75C15.6406 12.75 16.2 13.3094 16.2 14H12.2ZM14.95 16.75H17.95V12.75H14.95V16.75ZM17.95 16.75C19.4686 16.75 20.7 15.5186 20.7 14H16.7C16.7 13.3094 17.2594 12.75 17.95 12.75V16.75Z" fill="black" mask="url(#path-1-inside-1_9_23598)"/>
</svg>
