<svg width="22" height="22" viewBox="0 0 22 22" fill="none" xmlns="http://www.w3.org/2000/svg">
<mask id="path-1-inside-1_9_21424" fill="white">
<path d="M11 21.75C5.072 21.75 0.25 16.928 0.25 11C0.25 5.072 5.072 0.25 11 0.25C16.928 0.25 21.75 5.072 21.75 11C21.75 16.928 16.928 21.75 11 21.75ZM11 1.75C5.899 1.75 1.75 5.899 1.75 11C1.75 16.101 5.899 20.25 11 20.25C16.101 20.25 20.25 16.101 20.25 11C20.25 5.899 16.101 1.75 11 1.75ZM11.75 15.5V10.929C11.75 10.515 11.414 10.179 11 10.179C10.586 10.179 10.25 10.515 10.25 10.929V15.5C10.25 15.914 10.586 16.25 11 16.25C11.414 16.25 11.75 15.914 11.75 15.5ZM12.02 7.5C12.02 6.948 11.573 6.5 11.02 6.5H11.01C10.458 6.5 10.0149 6.948 10.0149 7.5C10.0149 8.052 10.468 8.5 11.02 8.5C11.572 8.5 12.02 8.052 12.02 7.5Z"/>
</mask>
<path d="M11 21.75C5.072 21.75 0.25 16.928 0.25 11C0.25 5.072 5.072 0.25 11 0.25C16.928 0.25 21.75 5.072 21.75 11C21.75 16.928 16.928 21.75 11 21.75ZM11 1.75C5.899 1.75 1.75 5.899 1.75 11C1.75 16.101 5.899 20.25 11 20.25C16.101 20.25 20.25 16.101 20.25 11C20.25 5.899 16.101 1.75 11 1.75ZM11.75 15.5V10.929C11.75 10.515 11.414 10.179 11 10.179C10.586 10.179 10.25 10.515 10.25 10.929V15.5C10.25 15.914 10.586 16.25 11 16.25C11.414 16.25 11.75 15.914 11.75 15.5ZM12.02 7.5C12.02 6.948 11.573 6.5 11.02 6.5H11.01C10.458 6.5 10.0149 6.948 10.0149 7.5C10.0149 8.052 10.468 8.5 11.02 8.5C11.572 8.5 12.02 8.052 12.02 7.5Z" fill="black"/>
<path d="M11 19.75C6.17657 19.75 2.25 15.8234 2.25 11H-1.75C-1.75 18.0326 3.96743 23.75 11 23.75V19.75ZM2.25 11C2.25 6.17657 6.17657 2.25 11 2.25V-1.75C3.96743 -1.75 -1.75 3.96743 -1.75 11H2.25ZM11 2.25C15.8234 2.25 19.75 6.17657 19.75 11H23.75C23.75 3.96743 18.0326 -1.75 11 -1.75V2.25ZM19.75 11C19.75 15.8234 15.8234 19.75 11 19.75V23.75C18.0326 23.75 23.75 18.0326 23.75 11H19.75ZM11 -0.25C4.79443 -0.25 -0.25 4.79443 -0.25 11H3.75C3.75 7.00357 7.00357 3.75 11 3.75V-0.25ZM-0.25 11C-0.25 17.2056 4.79443 22.25 11 22.25V18.25C7.00357 18.25 3.75 14.9964 3.75 11H-0.25ZM11 22.25C17.2056 22.25 22.25 17.2056 22.25 11H18.25C18.25 14.9964 14.9964 18.25 11 18.25V22.25ZM22.25 11C22.25 4.79443 17.2056 -0.25 11 -0.25V3.75C14.9964 3.75 18.25 7.00357 18.25 11H22.25ZM13.75 15.5V10.929H9.75V15.5H13.75ZM13.75 10.929C13.75 9.41039 12.5186 8.17896 11 8.17896V12.179C10.3094 12.179 9.75 11.6195 9.75 10.929H13.75ZM11 8.17896C9.48143 8.17896 8.25 9.41039 8.25 10.929H12.25C12.25 11.6195 11.6906 12.179 11 12.179V8.17896ZM8.25 10.929V15.5H12.25V10.929H8.25ZM8.25 15.5C8.25 17.0186 9.48143 18.25 11 18.25V14.25C11.6906 14.25 12.25 14.8094 12.25 15.5H8.25ZM11 18.25C12.5186 18.25 13.75 17.0186 13.75 15.5H9.75C9.75 14.8094 10.3094 14.25 11 14.25V18.25ZM14.02 7.5C14.02 5.84473 12.6789 4.5 11.02 4.5V8.5C10.4671 8.5 10.02 8.05127 10.02 7.5H14.02ZM11.02 4.5H11.01V8.5H11.02V4.5ZM11.01 4.5C9.3407 4.5 8.01489 5.85621 8.01489 7.5H12.0149C12.0149 8.03979 11.5753 8.5 11.01 8.5V4.5ZM8.01489 7.5C8.01489 9.16985 9.37678 10.5 11.02 10.5V6.5C11.5593 6.5 12.0149 6.93415 12.0149 7.5H8.01489ZM11.02 10.5C12.6766 10.5 14.02 9.15657 14.02 7.5H10.02C10.02 6.94743 10.4675 6.5 11.02 6.5V10.5Z" fill="black" mask="url(#path-1-inside-1_9_21424)"/>
</svg>
