<svg width="18" height="20" viewBox="0 0 18 20" fill="none" xmlns="http://www.w3.org/2000/svg">
<mask id="path-1-inside-1_9_19546" fill="white">
<path d="M9 19.75C8.855 19.75 8.71 19.708 8.584 19.624L8.05499 19.2729C4.94699 17.2199 0.25 14.118 0.25 9C0.25 4.175 4.175 0.25 9 0.25C13.825 0.25 17.75 4.175 17.75 9C17.75 14.118 13.053 17.2199 9.94501 19.2729L9.416 19.624C9.29 19.708 9.145 19.75 9 19.75ZM9 1.75C5.002 1.75 1.75 5.002 1.75 9C1.75 13.311 5.872 16.034 8.881 18.021L9 18.1001L9.119 18.021C12.129 16.033 16.25 13.311 16.25 9C16.25 5.002 12.998 1.75 9 1.75Z"/>
</mask>
<path d="M9 19.75C8.855 19.75 8.71 19.708 8.584 19.624L8.05499 19.2729C4.94699 17.2199 0.25 14.118 0.25 9C0.25 4.175 4.175 0.25 9 0.25C13.825 0.25 17.75 4.175 17.75 9C17.75 14.118 13.053 17.2199 9.94501 19.2729L9.416 19.624C9.29 19.708 9.145 19.75 9 19.75ZM9 1.75C5.002 1.75 1.75 5.002 1.75 9C1.75 13.311 5.872 16.034 8.881 18.021L9 18.1001L9.119 18.021C12.129 16.033 16.25 13.311 16.25 9C16.25 5.002 12.998 1.75 9 1.75Z" fill="black"/>
<path d="M8.584 19.624L9.6934 17.9599L9.68991 17.9576L8.584 19.624ZM8.05499 19.2729L9.16091 17.6065L9.15732 17.6042L8.05499 19.2729ZM9.94501 19.2729L8.84268 17.6042L8.83909 17.6065L9.94501 19.2729ZM9.416 19.624L8.31008 17.9576L8.3066 17.9599L9.416 19.624ZM8.881 18.021L9.98813 16.3554L9.98309 16.352L8.881 18.021ZM9 18.1001L7.89287 19.7657L9 20.5016L10.1071 19.7657L9 18.1001ZM9.119 18.021L8.01677 16.3521L8.01187 16.3554L9.119 18.021ZM9 17.75C9.24113 17.75 9.48369 17.8201 9.6934 17.9599L7.4746 21.2881C7.93631 21.5959 8.46887 21.75 9 21.75V17.75ZM9.68991 17.9576L9.16091 17.6065L6.94908 20.9394L7.47808 21.2904L9.68991 17.9576ZM9.15732 17.6042C7.57631 16.5598 5.82439 15.3925 4.44808 13.9201C3.09934 12.4772 2.25 10.8867 2.25 9H-1.75C-1.75 12.2313 -0.250841 14.7508 1.52591 16.6516C3.2751 18.5229 5.42568 19.9331 6.95267 20.9417L9.15732 17.6042ZM2.25 9C2.25 5.27957 5.27957 2.25 9 2.25V-1.75C3.07043 -1.75 -1.75 3.07043 -1.75 9H2.25ZM9 2.25C12.7204 2.25 15.75 5.27957 15.75 9H19.75C19.75 3.07043 14.9296 -1.75 9 -1.75V2.25ZM15.75 9C15.75 10.8867 14.9007 12.4772 13.5519 13.9201C12.1756 15.3925 10.4237 16.5598 8.84268 17.6042L11.0473 20.9417C12.5743 19.9331 14.7249 18.5229 16.4741 16.6516C18.2508 14.7508 19.75 12.2313 19.75 9H15.75ZM8.83909 17.6065L8.31009 17.9576L10.5219 21.2904L11.0509 20.9394L8.83909 17.6065ZM8.3066 17.9599C8.51631 17.8201 8.75887 17.75 9 17.75V21.75C9.53113 21.75 10.0637 21.5959 10.5254 21.2881L8.3066 17.9599ZM9 -0.25C3.89743 -0.25 -0.25 3.89743 -0.25 9H3.75C3.75 6.10657 6.10657 3.75 9 3.75V-0.25ZM-0.25 9C-0.25 11.8548 1.13099 14.0833 2.74304 15.7657C4.33038 17.4223 6.30594 18.7173 7.7789 19.6899L9.98309 16.352C8.44705 15.3377 6.85711 14.2777 5.6312 12.9983C4.43001 11.7447 3.75 10.4562 3.75 9H-0.25ZM7.77386 19.6866L7.89287 19.7657L10.1071 16.4345L9.98813 16.3554L7.77386 19.6866ZM10.1071 19.7657L10.2261 19.6866L8.01187 16.3554L7.89287 16.4345L10.1071 19.7657ZM10.2212 19.6899C11.6945 18.7168 13.6701 17.4218 15.2573 15.7653C16.8693 14.083 18.25 11.8547 18.25 9H14.25C14.25 10.4563 13.5702 11.7445 12.3692 12.9979C11.1434 14.2772 9.55347 15.3372 8.01678 16.3521L10.2212 19.6899ZM18.25 9C18.25 3.89743 14.1026 -0.25 9 -0.25V3.75C11.8934 3.75 14.25 6.10657 14.25 9H18.25Z" fill="black" mask="url(#path-1-inside-1_9_19546)"/>
</svg>
