<svg width="20" height="20" viewBox="0 0 20 20" fill="none" xmlns="http://www.w3.org/2000/svg">
<mask id="path-1-inside-1_4_62972" fill="white">
<path d="M15.625 0.5H4.375C1.84 0.5 0.5 1.84 0.5 4.375V15.625C0.5 18.16 1.84 19.5 4.375 19.5H15.625C18.16 19.5 19.5 18.16 19.5 15.625V4.375C19.5 1.84 18.16 0.5 15.625 0.5ZM18.5 15.625C18.5 17.586 17.587 18.5 15.625 18.5H4.375C2.414 18.5 1.5 17.586 1.5 15.625V4.375C1.5 2.414 2.414 1.5 4.375 1.5H15.625C17.587 1.5 18.5 2.414 18.5 4.375V15.625ZM14 10C14 10.276 13.776 10.5 13.5 10.5H10.5V13.5C10.5 13.776 10.276 14 10 14C9.724 14 9.5 13.776 9.5 13.5V10.5H6.5C6.224 10.5 6 10.276 6 10C6 9.724 6.224 9.5 6.5 9.5H9.5V6.5C9.5 6.224 9.724 6 10 6C10.276 6 10.5 6.224 10.5 6.5V9.5H13.5C13.776 9.5 14 9.724 14 10Z"/>
</mask>
<path d="M15.625 0.5H4.375C1.84 0.5 0.5 1.84 0.5 4.375V15.625C0.5 18.16 1.84 19.5 4.375 19.5H15.625C18.16 19.5 19.5 18.16 19.5 15.625V4.375C19.5 1.84 18.16 0.5 15.625 0.5ZM18.5 15.625C18.5 17.586 17.587 18.5 15.625 18.5H4.375C2.414 18.5 1.5 17.586 1.5 15.625V4.375C1.5 2.414 2.414 1.5 4.375 1.5H15.625C17.587 1.5 18.5 2.414 18.5 4.375V15.625ZM14 10C14 10.276 13.776 10.5 13.5 10.5H10.5V13.5C10.5 13.776 10.276 14 10 14C9.724 14 9.5 13.776 9.5 13.5V10.5H6.5C6.224 10.5 6 10.276 6 10C6 9.724 6.224 9.5 6.5 9.5H9.5V6.5C9.5 6.224 9.724 6 10 6C10.276 6 10.5 6.224 10.5 6.5V9.5H13.5C13.776 9.5 14 9.724 14 10Z" fill="black"/>
<path d="M10.5 10.5V8.5H8.5V10.5H10.5ZM9.5 10.5H11.5V8.5H9.5V10.5ZM9.5 9.5V11.5H11.5V9.5H9.5ZM10.5 9.5H8.5V11.5H10.5V9.5ZM15.625 -1.5H4.375V2.5H15.625V-1.5ZM4.375 -1.5C2.771 -1.5 1.21749 -1.07217 0.0726614 0.0726614C-1.07217 1.21749 -1.5 2.771 -1.5 4.375H2.5C2.5 3.444 2.74217 3.06001 2.90109 2.90109C3.06001 2.74217 3.444 2.5 4.375 2.5V-1.5ZM-1.5 4.375V15.625H2.5V4.375H-1.5ZM-1.5 15.625C-1.5 17.229 -1.07217 18.7825 0.0726614 19.9273C1.21749 21.0722 2.771 21.5 4.375 21.5V17.5C3.444 17.5 3.06001 17.2578 2.90109 17.0989C2.74217 16.94 2.5 16.556 2.5 15.625H-1.5ZM4.375 21.5H15.625V17.5H4.375V21.5ZM15.625 21.5C17.229 21.5 18.7825 21.0722 19.9273 19.9273C21.0722 18.7825 21.5 17.229 21.5 15.625H17.5C17.5 16.556 17.2578 16.94 17.0989 17.0989C16.94 17.2578 16.556 17.5 15.625 17.5V21.5ZM21.5 15.625V4.375H17.5V15.625H21.5ZM21.5 4.375C21.5 2.771 21.0722 1.21749 19.9273 0.0726614C18.7825 -1.07217 17.229 -1.5 15.625 -1.5V2.5C16.556 2.5 16.94 2.74217 17.0989 2.90109C17.2578 3.06001 17.5 3.444 17.5 4.375H21.5ZM16.5 15.625C16.5 16.3331 16.3327 16.435 16.3838 16.3838C16.4351 16.3326 16.3334 16.5 15.625 16.5V20.5C16.8786 20.5 18.2144 20.2104 19.2127 19.2119C20.2108 18.2135 20.5 16.8779 20.5 15.625H16.5ZM15.625 16.5H4.375V20.5H15.625V16.5ZM4.375 16.5C3.6674 16.5 3.56536 16.3327 3.61634 16.3837C3.66731 16.4346 3.5 16.3326 3.5 15.625H-0.5C-0.5 16.8784 -0.210314 18.2139 0.787911 19.2121C1.78614 20.2103 3.1216 20.5 4.375 20.5V16.5ZM3.5 15.625V4.375H-0.5V15.625H3.5ZM3.5 4.375C3.5 3.6674 3.66731 3.56536 3.61634 3.61634C3.56536 3.66731 3.6674 3.5 4.375 3.5V-0.5C3.1216 -0.5 1.78614 -0.210314 0.787911 0.787911C-0.210314 1.78614 -0.5 3.1216 -0.5 4.375H3.5ZM4.375 3.5H15.625V-0.5H4.375V3.5ZM15.625 3.5C16.3334 3.5 16.4351 3.66744 16.3838 3.61615C16.3327 3.56497 16.5 3.66686 16.5 4.375H20.5C20.5 3.12214 20.2108 1.78653 19.2127 0.788098C18.2144 -0.210438 16.8786 -0.5 15.625 -0.5V3.5ZM16.5 4.375V15.625H20.5V4.375H16.5ZM12 10C12 9.17143 12.6714 8.5 13.5 8.5V12.5C14.8806 12.5 16 11.3806 16 10H12ZM13.5 8.5H10.5V12.5H13.5V8.5ZM8.5 10.5V13.5H12.5V10.5H8.5ZM8.5 13.5C8.5 12.6714 9.17143 12 10 12V16C11.3806 16 12.5 14.8806 12.5 13.5H8.5ZM10 12C10.8286 12 11.5 12.6714 11.5 13.5H7.5C7.5 14.8806 8.61943 16 10 16V12ZM11.5 13.5V10.5H7.5V13.5H11.5ZM9.5 8.5H6.5V12.5H9.5V8.5ZM6.5 8.5C7.32857 8.5 8 9.17143 8 10H4C4 11.3806 5.11943 12.5 6.5 12.5V8.5ZM8 10C8 10.8286 7.32857 11.5 6.5 11.5V7.5C5.11943 7.5 4 8.61943 4 10H8ZM6.5 11.5H9.5V7.5H6.5V11.5ZM11.5 9.5V6.5H7.5V9.5H11.5ZM11.5 6.5C11.5 7.32857 10.8286 8 10 8V4C8.61943 4 7.5 5.11943 7.5 6.5H11.5ZM10 8C9.17143 8 8.5 7.32857 8.5 6.5H12.5C12.5 5.11943 11.3806 4 10 4V8ZM8.5 6.5V9.5H12.5V6.5H8.5ZM10.5 11.5H13.5V7.5H10.5V11.5ZM13.5 11.5C12.6714 11.5 12 10.8286 12 10H16C16 8.61943 14.8806 7.5 13.5 7.5V11.5Z" fill="black" mask="url(#path-1-inside-1_4_62972)"/>
</svg>
